<svg width="36" height="36" viewBox="0 0 36 36" fill="none" xmlns="http://www.w3.org/2000/svg">
<path d="M21.75 16.125H12.75C12.135 16.125 11.625 15.615 11.625 15C11.625 14.385 12.135 13.875 12.75 13.875H21.75C22.365 13.875 22.875 14.385 22.875 15C22.875 15.615 22.365 16.125 21.75 16.125Z" fill="#878787"/>
<path d="M17.25 20.625H12.75C12.135 20.625 11.625 20.115 11.625 19.5C11.625 18.885 12.135 18.375 12.75 18.375H17.25C17.865 18.375 18.375 18.885 18.375 19.5C18.375 20.115 17.865 20.625 17.25 20.625Z" fill="#878787"/>
<path opacity="0.4" d="M17.25 31.5C25.1201 31.5 31.5 25.1201 31.5 17.25C31.5 9.37994 25.1201 3 17.25 3C9.37994 3 3 9.37994 3 17.25C3 25.1201 9.37994 31.5 17.25 31.5Z" fill="url(#paint0_linear_1187_40730)"/>
<path d="M31.9501 33.0008C31.6801 33.0008 31.4101 32.8958 31.2151 32.7008L28.4251 29.9108C28.0201 29.5058 28.0201 28.8458 28.4251 28.4258C28.8301 28.0208 29.4901 28.0208 29.9101 28.4258L32.7001 31.2158C33.1051 31.6208 33.1051 32.2808 32.7001 32.7008C32.4901 32.8958 32.2201 33.0008 31.9501 33.0008Z" fill="url(#paint1_linear_1187_40730)"/>
<defs>
<linearGradient id="paint0_linear_1187_40730" x1="30.64" y1="2.79936" x2="24.7771" y2="35.4445" gradientUnits="userSpaceOnUse">
<stop stop-color="#00FFC4"/>
<stop offset="0.880723" stop-color="#1A5C66"/>
</linearGradient>
<linearGradient id="paint1_linear_1187_40730" x1="32.8565" y1="28.0877" x2="31.8536" y2="33.6763" gradientUnits="userSpaceOnUse">
<stop stop-color="#00FFC4"/>
<stop offset="0.880723" stop-color="#1A5C66"/>
</linearGradient>
</defs>
</svg>
