<svg width="20" height="20" viewBox="0 0 20 20" fill="none" xmlns="http://www.w3.org/2000/svg">
<path d="M11.389 12H7.61205C7.46294 12.0002 7.31682 11.9582 7.1906 11.8788C7.06438 11.7994 6.96322 11.6859 6.89883 11.5514C6.82346 11.3919 6.79443 11.2143 6.81505 11.0391C6.83567 10.8638 6.90511 10.6978 7.01546 10.5601L8.90392 8.27242C8.97803 8.18691 9.06966 8.11833 9.17259 8.07133C9.27552 8.02432 9.38736 8 9.50051 8C9.61367 8 9.7255 8.02432 9.82844 8.07133C9.93137 8.11833 10.023 8.18691 10.0971 8.27242L11.9856 10.5601C12.0959 10.6978 12.1654 10.8638 12.186 11.0391C12.2066 11.2143 12.1776 11.3919 12.1022 11.5514C12.0378 11.6859 11.9366 11.7994 11.8104 11.8788C11.6842 11.9582 11.5381 12.0002 11.389 12Z" fill="white"/>
</svg>
