<svg width="20" height="16" viewBox="0 0 20 16" fill="none" xmlns="http://www.w3.org/2000/svg">
<path d="M7.61103 4L11.3879 4C11.5371 3.99978 11.6832 4.0418 11.8094 4.12118C11.9356 4.20057 12.0368 4.31408 12.1012 4.44857C12.1765 4.60814 12.2056 4.78568 12.185 4.96095C12.1643 5.13622 12.0949 5.30217 11.9845 5.4399L10.0961 7.72758C10.022 7.81309 9.93034 7.88167 9.82741 7.92867C9.72448 7.97567 9.61264 8 9.49949 8C9.38633 8 9.2745 7.97567 9.17156 7.92867C9.06863 7.88167 8.97701 7.81309 8.90289 7.72758L7.01443 5.4399C6.90408 5.30217 6.83464 5.13622 6.81402 4.96095C6.7934 4.78568 6.82243 4.60814 6.89781 4.44857C6.96219 4.31408 7.06335 4.20057 7.18957 4.12118C7.3158 4.0418 7.46192 3.99978 7.61103 4Z" fill="white"/>
</svg>
