<svg width="36" height="36" viewBox="0 0 36 36" fill="none" xmlns="http://www.w3.org/2000/svg">
<path d="M27.0702 10.73C25.4602 10.57 23.8502 10.45 22.2302 10.36V10.35L22.0102 9.05C21.8602 8.13 21.6402 6.75 19.3002 6.75H16.6802C14.3502 6.75 14.1302 8.07 13.9702 9.04L13.7602 10.32C12.8302 10.38 11.9002 10.44 10.9702 10.53L8.93016 10.73C8.51016 10.77 8.21016 11.14 8.25016 11.55C8.29016 11.96 8.65016 12.26 9.07016 12.22L11.1102 12.02C16.3502 11.5 21.6302 11.7 26.9302 12.23C26.9602 12.23 26.9802 12.23 27.0102 12.23C27.3902 12.23 27.7202 11.94 27.7602 11.55C27.7902 11.14 27.4902 10.77 27.0702 10.73Z" fill="#878787"/>
<path opacity="0.3991" d="M25.2302 13.64C24.9902 13.39 24.6602 13.25 24.3202 13.25H11.6802C11.3402 13.25 11.0002 13.39 10.7702 13.64C10.5402 13.89 10.4102 14.23 10.4302 14.58L11.0502 24.84C11.1602 26.36 11.3002 28.26 14.7902 28.26H21.2102C24.7002 28.26 24.8402 26.37 24.9502 24.84L25.5702 14.59C25.5902 14.23 25.4602 13.89 25.2302 13.64Z" fill="#878787"/>
<path fill-rule="evenodd" clip-rule="evenodd" d="M15.5801 22.5C15.5801 22.0858 15.9159 21.75 16.3301 21.75H19.6601C20.0743 21.75 20.4101 22.0858 20.4101 22.5C20.4101 22.9142 20.0743 23.25 19.6601 23.25H16.3301C15.9159 23.25 15.5801 22.9142 15.5801 22.5Z" fill="#878787"/>
<path fill-rule="evenodd" clip-rule="evenodd" d="M14.75 18.5C14.75 18.0858 15.0858 17.75 15.5 17.75H20.5C20.9142 17.75 21.25 18.0858 21.25 18.5C21.25 18.9142 20.9142 19.25 20.5 19.25H15.5C15.0858 19.25 14.75 18.9142 14.75 18.5Z" fill="#878787"/>
</svg>
