<svg width="40" height="40" viewBox="0 0 40 40" fill="none" xmlns="http://www.w3.org/2000/svg">
<path opacity="0.4" d="M26.9835 3.33325H13.0168C6.95016 3.33325 3.3335 6.94992 3.3335 13.0166V26.9666C3.3335 33.0499 6.95016 36.6666 13.0168 36.6666H26.9668C33.0335 36.6666 36.6502 33.0499 36.6502 26.9833V13.0166C36.6668 6.94992 33.0502 3.33325 26.9835 3.33325Z" fill="#878787"/>
<path d="M22.1002 27.1334C21.7835 27.1334 21.4669 27.0167 21.2169 26.7667L15.3335 20.8833C15.1011 20.6481 14.9707 20.3307 14.9707 20C14.9707 19.6693 15.1011 19.3519 15.3335 19.1167L21.2169 13.2333C21.7002 12.75 22.5002 12.75 22.9835 13.2333C23.4669 13.7167 23.4669 14.5167 22.9835 15L17.9835 20L22.9835 25C23.4669 25.4833 23.4669 26.2833 22.9835 26.7667C22.8699 26.8859 22.7327 26.9801 22.5806 27.0432C22.4285 27.1064 22.2649 27.1371 22.1002 27.1334Z" fill="#878787"/>
</svg>
