<svg width="36" height="36" viewBox="0 0 36 36" fill="none" xmlns="http://www.w3.org/2000/svg">
<path opacity="0.4" d="M26.5 16.19H23.61C21.24 16.19 19.31 14.26 19.31 11.89V9C19.31 8.45 18.86 8 18.31 8H14.07C10.99 8 8.5 10 8.5 13.57V22.43C8.5 26 10.99 28 14.07 28H21.93C25.01 28 27.5 26 27.5 22.43V17.19C27.5 16.64 27.05 16.19 26.5 16.19Z" fill="#878787"/>
<path d="M21.7999 8.20999C21.3899 7.79999 20.6799 8.07999 20.6799 8.64999V12.14C20.6799 13.6 21.9199 14.81 23.4299 14.81C24.3799 14.82 25.6999 14.82 26.8299 14.82C27.3999 14.82 27.6999 14.15 27.2999 13.75C25.8599 12.3 23.2799 9.68999 21.7999 8.20999ZM18.2799 20.72C18.1388 20.5805 17.9484 20.5023 17.7499 20.5023C17.5515 20.5023 17.3611 20.5805 17.2199 20.72L16.4999 21.44V17.25C16.4999 16.84 16.1599 16.5 15.7499 16.5C15.3399 16.5 14.9999 16.84 14.9999 17.25V21.44L14.2799 20.72C14.1388 20.5805 13.9484 20.5023 13.7499 20.5023C13.5515 20.5023 13.3611 20.5805 13.2199 20.72C12.9299 21.01 12.9299 21.49 13.2199 21.78L15.2199 23.78C15.2299 23.79 15.2399 23.79 15.2399 23.8C15.2999 23.86 15.3799 23.91 15.4599 23.95C15.5599 23.98 15.6499 24 15.7499 24C15.8499 24 15.9399 23.98 16.0299 23.94C16.1199 23.9 16.1999 23.85 16.2799 23.78L18.2799 21.78C18.5699 21.49 18.5699 21.01 18.2799 20.72Z" fill="#878787"/>
</svg>
