<svg width="16" height="16" viewBox="0 0 16 16" fill="none" xmlns="http://www.w3.org/2000/svg">
<g clip-path="url(#clip0_2028_5431)">
<g clip-path="url(#clip1_2028_5431)">
<path d="M11.3333 6.00122C12.7833 6.00922 13.5687 6.07389 14.0807 6.58589C14.6667 7.17189 14.6667 8.11455 14.6667 9.99989V10.6666C14.6667 12.5526 14.6667 13.4952 14.0807 14.0812C13.4953 14.6666 12.552 14.6666 10.6667 14.6666H5.33333C3.44799 14.6666 2.50466 14.6666 1.91933 14.0812C1.33333 13.4946 1.33333 12.5526 1.33333 10.6666V9.99989C1.33333 8.11455 1.33333 7.17189 1.91933 6.58589C2.43133 6.07389 3.21666 6.00922 4.66666 6.00122" stroke="white" stroke-linecap="round"/>
<path d="M8 1.33325V9.99992M8 9.99992L6 7.66659M8 9.99992L10 7.66659" stroke="white" stroke-linecap="round" stroke-linejoin="round"/>
</g>
</g>
<defs>
<clipPath id="clip0_2028_5431">
<rect width="16" height="16" fill="white"/>
</clipPath>
<clipPath id="clip1_2028_5431">
<rect width="16" height="16" fill="white"/>
</clipPath>
</defs>
</svg>
