<svg width="16" height="16" viewBox="0 0 16 16" fill="none" xmlns="http://www.w3.org/2000/svg">
<path d="M13.4715 1.6367C13.2696 1.43471 13.0299 1.27449 12.7661 1.1652C12.5023 1.05591 12.2195 0.999689 11.9339 0.999756C11.6483 0.999823 11.3656 1.05617 11.1018 1.16559C10.838 1.275 10.5984 1.43533 10.3966 1.63742L3.57109 8.47223C3.1644 8.87985 2.93592 9.43209 2.93572 10.0079V12.3075C2.93572 12.6047 3.17694 12.8459 3.47417 12.8459H5.7881C6.36461 12.8459 6.91742 12.6162 7.3245 12.2091L14.1449 5.38436C14.5518 4.97654 14.7803 4.42401 14.7803 3.84796C14.7803 3.27191 14.5518 2.71937 14.1449 2.31156L13.4715 1.6367ZM2.75623 13.9228C2.61342 13.9228 2.47646 13.9796 2.37548 14.0806C2.2745 14.1815 2.21777 14.3185 2.21777 14.4613C2.21777 14.6041 2.2745 14.7411 2.37548 14.842C2.47646 14.943 2.61342 14.9998 2.75623 14.9998H14.2433C14.3861 14.9998 14.5231 14.943 14.6241 14.842C14.725 14.7411 14.7818 14.6041 14.7818 14.4613C14.7818 14.3185 14.725 14.1815 14.6241 14.0806C14.5231 13.9796 14.3861 13.9228 14.2433 13.9228H2.75623Z" fill="#454545"/>
</svg>
