<svg width="16" height="16" viewBox="0 0 16 16" fill="none" xmlns="http://www.w3.org/2000/svg">
<path d="M4.27656 12C4.30781 12 4.33906 11.9969 4.37031 11.9922L6.99844 11.5312C7.02969 11.525 7.05938 11.5109 7.08125 11.4875L13.7047 4.86406C13.7192 4.84961 13.7307 4.83244 13.7385 4.81354C13.7463 4.79463 13.7504 4.77437 13.7504 4.75391C13.7504 4.73344 13.7463 4.71318 13.7385 4.69428C13.7307 4.67538 13.7192 4.65821 13.7047 4.64375L11.1078 2.04531C11.0781 2.01563 11.0391 2 10.9969 2C10.9547 2 10.9156 2.01563 10.8859 2.04531L4.2625 8.66875C4.23906 8.69219 4.225 8.72031 4.21875 8.75156L3.75781 11.3797C3.74261 11.4634 3.74804 11.5495 3.77364 11.6307C3.79923 11.7118 3.84421 11.7855 3.90469 11.8453C4.00781 11.9453 4.1375 12 4.27656 12ZM5.32969 9.275L10.9969 3.60938L12.1422 4.75469L6.475 10.4203L5.08594 10.6656L5.32969 9.275ZM14 13.3125H2.5C2.22344 13.3125 2 13.5359 2 13.8125V14.375C2 14.4438 2.05625 14.5 2.125 14.5H14.375C14.4438 14.5 14.5 14.4438 14.5 14.375V13.8125C14.5 13.5359 14.2766 13.3125 14 13.3125Z" fill="white"/>
</svg>
