<svg width="24" height="24" viewBox="0 0 24 24" fill="none" xmlns="http://www.w3.org/2000/svg">
<path d="M13.241 17.845C13.3825 17.9816 13.572 18.0571 13.7687 18.0553C13.9653 18.0535 14.1534 17.9745 14.2924 17.8354C14.4314 17.6963 14.5101 17.5081 14.5118 17.3115C14.5134 17.1148 14.4377 16.9254 14.301 16.784L13.241 17.845ZM7.216 9.69702C7.14678 9.62542 7.064 9.56833 6.97247 9.52906C6.88095 9.4898 6.78253 9.46916 6.68294 9.46834C6.58336 9.46752 6.48461 9.48655 6.39246 9.5243C6.3003 9.56205 6.21659 9.61778 6.1462 9.68823C6.07582 9.75869 6.02017 9.84245 5.9825 9.93464C5.94483 10.0268 5.9259 10.1256 5.92681 10.2252C5.92773 10.3248 5.94846 10.4232 5.98781 10.5147C6.02716 10.6061 6.08434 10.6889 6.156 10.758L7.216 9.69702ZM17.965 12.059L12.06 17.964L13.12 19.024L19.025 13.12L17.965 12.059ZM6.035 11.94L11.94 6.03402L10.88 4.97502L4.975 10.878L6.035 11.94ZM6.035 17.964C5.185 17.114 4.602 16.528 4.223 16.031C3.856 15.55 3.75 15.241 3.75 14.951L2.25 14.952C2.25 15.701 2.562 16.326 3.03 16.941C3.485 17.537 4.155 18.204 4.975 19.024L6.035 17.964ZM4.975 10.878C4.155 11.698 3.485 12.366 3.03 12.962C2.562 13.576 2.25 14.202 2.25 14.952L3.75 14.951C3.75 14.661 3.856 14.352 4.223 13.872C4.603 13.374 5.185 12.79 6.035 11.94L4.975 10.878ZM12.06 17.964C11.21 18.814 10.625 19.397 10.127 19.777C9.647 20.143 9.337 20.249 9.047 20.249V21.749C9.797 21.749 10.423 21.437 11.037 20.969C11.633 20.514 12.301 19.844 13.121 19.024L12.06 17.964ZM4.975 19.024C5.795 19.844 6.462 20.514 7.059 20.969C7.673 21.437 8.299 21.75 9.048 21.75V20.249C8.758 20.249 8.449 20.143 7.968 19.776C7.471 19.396 6.885 18.814 6.035 17.964L4.975 19.024ZM17.965 6.03402C18.815 6.88402 19.398 7.47002 19.778 7.96702C20.144 8.44802 20.25 8.75702 20.25 9.04702H21.75C21.75 8.29802 21.438 7.67202 20.97 7.05702C20.515 6.46102 19.845 5.79402 19.025 4.97402L17.965 6.03402ZM19.025 13.12C19.845 12.3 20.515 11.632 20.97 11.036C21.438 10.422 21.75 9.79602 21.75 9.04602H20.25C20.25 9.33602 20.144 9.64602 19.777 10.126C19.397 10.624 18.815 11.209 17.965 12.059L19.025 13.12ZM19.025 4.97402C18.205 4.15402 17.538 3.48402 16.941 3.02902C16.327 2.56102 15.701 2.24902 14.952 2.24902V3.74902C15.242 3.74902 15.551 3.85502 16.032 4.22202C16.529 4.60202 17.115 5.18402 17.965 6.03402L19.025 4.97402ZM11.94 6.03402C12.79 5.18402 13.375 4.60102 13.873 4.22202C14.353 3.85502 14.663 3.74902 14.953 3.74902V2.24902C14.203 2.24902 13.577 2.56102 12.963 3.02902C12.367 3.48402 11.699 4.15402 10.879 4.97402L11.94 6.03402ZM14.302 16.783L7.216 9.69802L6.156 10.758L13.241 17.845L14.302 16.783Z" fill="currentColor"/>
<path d="M9 21H21" stroke="currentColor" stroke-width="1.5" stroke-linecap="round"/>
</svg>
