<svg width="16" height="16" viewBox="0 0 16 16" fill="none" xmlns="http://www.w3.org/2000/svg">
<path d="M10.5 8C10.5 8.66304 10.2366 9.29893 9.76777 9.76777C9.29893 10.2366 8.66304 10.5 8 10.5M5.5 8C5.5 7.33696 5.76339 6.70107 6.23223 6.23223C6.70107 5.76339 7.33696 5.5 8 5.5M6.5 12.327C6.99188 12.441 7.49508 12.499 8 12.5C11.59 12.5 14.5 9.5 14.5 8C14.5 7.332 13.9225 6.366 12.9645 5.5M9.75 3.735C9.17947 3.58038 8.59111 3.50137 8 3.5C4.41 3.5 1.5 6.5 1.5 8C1.5 8.66 2.0635 9.61 3 10.4675M3.5 12.5L12.5 3.5" stroke="white" stroke-opacity="0.3" stroke-linecap="round" stroke-linejoin="round"/>
</svg>
