<svg width="16" height="16" viewBox="0 0 16 16" fill="none" xmlns="http://www.w3.org/2000/svg">
<path d="M2.18398 10.1974C1.61732 9.46135 1.33398 9.09269 1.33398 8.00002C1.33398 6.90669 1.61732 6.53935 2.18398 5.80269C3.31532 4.33335 5.21265 2.66669 8.00065 2.66669C10.7887 2.66669 12.686 4.33335 13.8173 5.80269C14.384 6.54002 14.6673 6.90735 14.6673 8.00002C14.6673 9.09335 14.384 9.46069 13.8173 10.1974C12.686 11.6667 10.7887 13.3334 8.00065 13.3334C5.21265 13.3334 3.31532 11.6667 2.18398 10.1974Z" stroke="white" stroke-opacity="0.3" stroke-width="1.5"/>
<path d="M10 8C10 8.53043 9.78929 9.03914 9.41421 9.41421C9.03914 9.78929 8.53043 10 8 10C7.46957 10 6.96086 9.78929 6.58579 9.41421C6.21071 9.03914 6 8.53043 6 8C6 7.46957 6.21071 6.96086 6.58579 6.58579C6.96086 6.21071 7.46957 6 8 6C8.53043 6 9.03914 6.21071 9.41421 6.58579C9.78929 6.96086 10 7.46957 10 8Z" stroke="white" stroke-opacity="0.3" stroke-width="1.5"/>
</svg>
