<svg width="41" height="41" viewBox="0 0 41 41" fill="none" xmlns="http://www.w3.org/2000/svg">
<path fill-rule="evenodd" clip-rule="evenodd" d="M10.9167 8.36667C10.1741 8.36667 9.46187 8.66167 8.93677 9.18677C8.41167 9.71187 8.11667 10.4241 8.11667 11.1667V15.8333H6.25V11.1667C6.25 9.92899 6.74167 8.742 7.61683 7.86683C8.492 6.99167 9.67899 6.5 10.9167 6.5L15.5833 6.5V8.36667H10.9167ZM29.5833 8.36667H24.9167V6.5H29.5833C30.821 6.5 32.008 6.99167 32.8832 7.86683C33.7583 8.742 34.25 9.92899 34.25 11.1667V15.8333H32.3833V11.1667C32.3833 10.4241 32.0883 9.71187 31.5632 9.18677C31.0381 8.66167 30.3259 8.36667 29.5833 8.36667ZM15.5833 17.7H13.7167V15.8333H15.5833V17.7ZM26.7833 17.7H24.9167V15.8333H26.7833V17.7ZM15.3967 22.74C15.9618 23.4935 16.6945 24.105 17.5369 24.5262C18.3793 24.9474 19.3082 25.1667 20.25 25.1667C21.1918 25.1667 22.1207 24.9474 22.9631 24.5262C23.8055 24.105 24.5382 23.4935 25.1033 22.74L26.5967 23.86C23.4233 28.0917 17.0767 28.0917 13.9033 23.86L15.3967 22.74ZM6.25 29.8333V25.1667H8.11667V29.8333C8.11667 30.5759 8.41167 31.2881 8.93677 31.8132C9.46187 32.3383 10.1741 32.6333 10.9167 32.6333H15.5833V34.5H10.9167C9.67899 34.5 8.492 34.0083 7.61683 33.1332C6.74167 32.258 6.25 31.071 6.25 29.8333ZM34.25 25.1667V29.8333C34.25 31.071 33.7583 32.258 32.8832 33.1332C32.008 34.0083 30.821 34.5 29.5833 34.5H24.9167V32.6333H29.5833C30.3259 32.6333 31.0381 32.3383 31.5632 31.8132C32.0883 31.2881 32.3833 30.5759 32.3833 29.8333V25.1667H34.25Z" fill="white"/>
</svg>
