<svg width="24" height="21" viewBox="0 0 24 21" fill="none" xmlns="http://www.w3.org/2000/svg">
<path opacity="0.61" fill-rule="evenodd" clip-rule="evenodd" d="M16.1049 0.217285C16.6541 0.217285 17.1827 0.423056 17.5859 0.792953L23.0418 5.80151C23.3757 6.1082 23.5278 6.53691 23.4958 6.95682C23.4758 7.24884 23.3656 7.53661 23.1598 7.77646L13.0369 19.5955C12.2305 20.5372 10.7685 20.5372 9.96208 19.5955L-0.160859 7.77646C-0.380387 7.52018 -0.491105 7.20885 -0.499176 6.89592C-0.512708 6.49551 -0.359603 6.09342 -0.041778 5.80151L5.41409 0.792953C5.8173 0.423056 6.34642 0.217285 6.89515 0.217285H16.1049ZM-0.490316 7.01416C-0.487832 7.0359 -0.48482 7.05762 -0.481273 7.07929L6.84563 8.05621H16.1543L20.016 7.54129L16.1543 8.05617H6.84566L-0.481245 7.07925C-0.484765 7.0576 -0.487788 7.0359 -0.490316 7.01416Z" fill="#0F0F0F"/>
<path opacity="0.31" d="M17.5859 0.792953C17.1827 0.423056 16.6541 0.217285 16.1049 0.217285H6.89515C6.34642 0.217285 5.8173 0.423056 5.41409 0.792953L-0.041778 5.80151C-0.408246 6.13809 -0.555715 6.62116 -0.481245 7.07925L6.84566 8.05617H16.1543L23.4812 7.07925C23.5557 6.62165 23.4082 6.13809 23.0418 5.80151L17.5859 0.792953Z" fill="#F7F5F4"/>
<path opacity="0.3" d="M16.1052 0.217285H6.89545C6.54417 0.217285 6.20465 0.309882 5.89746 0.467639L6.84597 8.05617H16.1546L17.1031 0.467639C16.796 0.309882 16.4569 0.217285 16.1052 0.217285Z" fill="#F7F5F4"/>
<path d="M11.4995 20.3042L6.84521 8.05615L11.4995 0.217285L16.1538 8.05615L11.4995 20.3042Z" fill="#0F0F0F"/>
<path d="M16.1539 8.05617H6.84521L11.4996 0.217285L16.1539 8.05617Z" fill="white" fill-opacity="0.34"/>
</svg>
