<svg width="16" height="16" viewBox="0 0 16 16" fill="none" xmlns="http://www.w3.org/2000/svg">
<g clip-path="url(#clip0_2028_4627)">
<path d="M8 3.66666L7.64 4.01332C7.68664 4.06172 7.74256 4.10021 7.80442 4.1265C7.86627 4.15279 7.93279 4.16634 8 4.16634C8.06721 4.16634 8.13373 4.15279 8.19559 4.1265C8.25744 4.10021 8.31336 4.06172 8.36 4.01332L8 3.66666ZM6.284 12.2147C5.27334 11.418 4.16867 10.64 3.292 9.65332C2.43334 8.68532 1.83334 7.55666 1.83334 6.09132H0.833336C0.833336 7.86866 1.57334 9.22466 2.54467 10.3173C3.498 11.3907 4.714 12.2507 5.66467 13L6.284 12.2147ZM1.83334 6.09132C1.83334 4.65799 2.64334 3.45532 3.74934 2.94932C4.824 2.45799 6.268 2.58799 7.64 4.01332L8.36 3.32066C6.73334 1.62932 4.84267 1.34999 3.33334 2.03999C1.85734 2.71532 0.833336 4.28332 0.833336 6.09132H1.83334ZM5.66467 13C6.00667 13.2693 6.37334 13.556 6.74467 13.7733C7.116 13.9907 7.54 14.1667 8 14.1667V13.1667C7.79334 13.1667 7.55067 13.0867 7.24934 12.91C6.94734 12.734 6.63467 12.4913 6.284 12.2147L5.66467 13ZM10.3353 13C11.286 12.25 12.502 11.3913 13.4553 10.3173C14.4267 9.22399 15.1667 7.86866 15.1667 6.09132H14.1667C14.1667 7.55666 13.5667 8.68532 12.708 9.65332C11.8313 10.64 10.7267 11.418 9.716 12.2147L10.3353 13ZM15.1667 6.09132C15.1667 4.28332 14.1433 2.71532 12.6667 2.03999C11.1573 1.34999 9.268 1.62932 7.64 3.31999L8.36 4.01332C9.732 2.58866 11.176 2.45799 12.2507 2.94932C13.3567 3.45532 14.1667 4.65732 14.1667 6.09132H15.1667ZM9.716 12.2147C9.36534 12.4913 9.05267 12.734 8.75067 12.91C8.44867 13.086 8.20667 13.1667 8 13.1667V14.1667C8.46 14.1667 8.884 13.99 9.25534 13.7733C9.62734 13.556 9.99334 13.2693 10.3353 13L9.716 12.2147Z" fill="white"/>
</g>
<defs>
<clipPath id="clip0_2028_4627">
<rect width="16" height="16" fill="white"/>
</clipPath>
</defs>
</svg>
