<svg width="32" height="32" viewBox="0 0 32 32" fill="none" xmlns="http://www.w3.org/2000/svg">
<g opacity="0.5">
<path opacity="0.4" d="M25.6133 8.48001C24.2267 5.68002 21.5467 3.61335 18.44 2.93335C15.1867 2.21335 11.8533 2.98668 9.30667 5.04001C6.74667 7.08001 5.29333 10.1333 5.29333 13.4C5.29333 16.8533 7.36 20.4667 10.48 22.56V23.6667C10.4667 24.04 10.4533 24.6133 10.9067 25.08C11.3733 25.56 12.0667 25.6133 12.6133 25.6133H19.4533C20.1733 25.6133 20.72 25.4134 21.0933 25.04C21.6 24.52 21.5867 23.8533 21.5733 23.4933V22.56C25.7067 19.7733 28.3067 13.8933 25.6133 8.48001Z" fill="#878787"/>
<path d="M20.3467 29.3334C20.2667 29.3334 20.1733 29.32 20.0933 29.2934C17.4133 28.5334 14.6 28.5334 11.92 29.2934C11.4267 29.4267 10.9067 29.1467 10.7733 28.6534C10.6267 28.16 10.92 27.64 11.4133 27.5067C14.4267 26.6534 17.6 26.6534 20.6133 27.5067C21.1067 27.6534 21.4 28.16 21.2533 28.6534C21.12 29.0667 20.7467 29.3334 20.3467 29.3334Z" fill="#878787"/>
<path d="M16 18.4667C15.8266 18.4667 15.6533 18.4267 15.5066 18.3334C15.0266 18.0534 14.8666 17.44 15.1333 16.9734L16.2666 15H15.1466C14.48 15 13.9333 14.7067 13.64 14.2134C13.3466 13.7067 13.3733 13.0934 13.7066 12.5067L15.1333 10.0267C15.4133 9.5467 16.0266 9.3867 16.4933 9.65336C16.9733 9.93336 17.1333 10.5467 16.8666 11.0134L15.7333 13H16.8533C17.52 13 18.0666 13.2934 18.36 13.7867C18.6533 14.2934 18.6266 14.9067 18.2933 15.4934L16.8666 17.9734C16.68 18.2934 16.3466 18.4667 16 18.4667Z" fill="#878787"/>
</g>
</svg>
