<svg width="20" height="20" viewBox="0 0 20 20" fill="none" xmlns="http://www.w3.org/2000/svg">
<path d="M10.505 3.11667C10.3517 3.02684 10.1772 2.97949 9.99948 2.97949C9.82179 2.97949 9.6473 3.02684 9.49398 3.11667L3.48398 6.63667C3.33353 6.72509 3.20883 6.85136 3.12229 7.0029C3.03575 7.15445 2.99038 7.32601 2.99068 7.50053C2.99099 7.67504 3.03696 7.84644 3.12402 7.99769C3.21109 8.14893 3.33622 8.27476 3.48698 8.36267L9.49598 11.8647C9.64883 11.9537 9.82257 12.0007 9.99948 12.0007C10.1764 12.0007 10.3501 11.9537 10.503 11.8647L16.512 8.36267C16.6629 8.27465 16.7881 8.14865 16.8751 7.9972C16.9622 7.84575 17.008 7.67414 17.0081 7.49945C17.0082 7.32477 16.9626 7.1531 16.8757 7.00155C16.7888 6.85 16.6638 6.72385 16.513 6.63567L10.505 3.11667ZM3.06998 9.64966L9.50798 13.2717C9.6576 13.3558 9.82635 13.3999 9.99798 13.3999C10.1696 13.3999 10.3384 13.3558 10.488 13.2717L16.926 9.64966C17.0227 9.87412 17.034 10.1262 16.9575 10.3584C16.881 10.5905 16.7222 10.7866 16.511 10.9097L10.501 14.4117C10.3483 14.5006 10.1747 14.5474 9.99798 14.5474C9.82127 14.5474 9.64771 14.5006 9.49498 14.4117L3.48498 10.9097C3.27378 10.7866 3.11494 10.5905 3.03847 10.3584C2.96201 10.1262 2.97322 9.87412 3.06998 9.64966ZM3.06998 12.1027L9.50798 15.7247C9.6576 15.8088 9.82635 15.8529 9.99798 15.8529C10.1696 15.8529 10.3384 15.8088 10.488 15.7247L16.926 12.1027C17.0227 12.3271 17.034 12.5792 16.9575 12.8114C16.881 13.0435 16.7222 13.2396 16.511 13.3627L10.501 16.8647C10.3483 16.9536 10.1747 17.0004 9.99798 17.0004C9.82127 17.0004 9.64771 16.9536 9.49498 16.8647L3.48498 13.3627C3.27378 13.2396 3.11494 13.0435 3.03847 12.8114C2.96201 12.5792 2.97322 12.3271 3.06998 12.1027Z" fill="white"/>
</svg>
