<svg width="16" height="16" viewBox="0 0 16 16" fill="none" xmlns="http://www.w3.org/2000/svg">
<g clip-path="url(#clip0_17_17084)">
<path d="M16 7.28347H8.06443C5.59155 6.87769 4.07775 6.5267 4.07775 4.7176C4.07771 2.82181 6.19062 2.14914 8 2.14914C9.93519 2.14914 11.3901 2.84655 11.797 3.96913L13.1441 3.48087C12.8197 2.58583 12.1285 1.85708 11.1454 1.37341C10.2715 0.943556 9.18381 0.716309 8 0.716309C4.79694 0.716309 2.64487 2.32433 2.64487 4.7176C2.64487 5.79313 3.00757 6.65255 3.72437 7.28347H0V8.71631H7.94713C10.4132 9.12132 11.9223 9.47457 11.9223 11.2822C11.9223 13.178 9.80939 13.8506 8 13.8506C6.06419 13.8506 4.6091 13.1529 4.2027 12.0296L2.85536 12.5172C3.17941 13.4128 3.87047 14.142 4.85383 14.6259C5.72786 15.0561 6.81581 15.2835 8 15.2835C11.2031 15.2835 13.3551 13.6754 13.3551 11.2822C13.3551 10.2068 12.9929 9.34743 12.2769 8.71631H16V7.28347Z" fill="white"/>
</g>
<defs>
<clipPath id="clip0_17_17084">
<rect width="16" height="16" fill="white"/>
</clipPath>
</defs>
</svg>
