<svg width="20" height="20" viewBox="0 0 20 20" fill="none" xmlns="http://www.w3.org/2000/svg">
<path d="M5.15983 16.0416C5.04205 16.0416 4.94316 16.0016 4.86316 15.9216C4.78316 15.8416 4.74316 15.7424 4.74316 15.6241C4.74316 15.5057 4.78316 15.4068 4.86316 15.3274C4.94316 15.248 5.04205 15.2082 5.15983 15.2082H14.8398C14.9576 15.2082 15.0565 15.2482 15.1365 15.3282C15.2165 15.4082 15.2565 15.5074 15.2565 15.6257C15.2565 15.7441 15.2165 15.843 15.1365 15.9224C15.0565 16.0018 14.9576 16.0416 14.8398 16.0416H5.15983ZM9.99983 13.3816C8.81094 13.3816 7.87816 13.0321 7.2015 12.3332C6.52483 11.6343 6.18678 10.6857 6.18733 9.4874V3.65823C6.18733 3.52879 6.23483 3.41823 6.32983 3.32657C6.42483 3.23434 6.53678 3.18823 6.66566 3.18823C6.79455 3.18823 6.90428 3.23434 6.99483 3.32657C7.08539 3.41879 7.13094 3.52934 7.1315 3.65823V9.5149C7.1315 10.421 7.38455 11.1385 7.89066 11.6674C8.39733 12.1963 9.10039 12.4607 9.99983 12.4607C10.8993 12.4607 11.6021 12.1963 12.1082 11.6674C12.6143 11.1385 12.8676 10.421 12.8682 9.5149V3.65907C12.8682 3.52962 12.9159 3.41907 13.0115 3.3274C13.1059 3.23518 13.2176 3.18907 13.3465 3.18907C13.4754 3.18907 13.5854 3.23518 13.6765 3.3274C13.7676 3.41962 13.8129 3.53018 13.8123 3.65907V9.4874C13.8123 10.6857 13.4743 11.6343 12.7982 12.3332C12.1221 13.0321 11.1893 13.3816 9.99983 13.3816Z" fill="white" stroke="white" stroke-width="0.5"/>
</svg>
