<svg width="20" height="20" viewBox="0 0 20 20" fill="none" xmlns="http://www.w3.org/2000/svg">
<path d="M5 2.5H10.625C11.4282 2.50025 12.2158 2.72154 12.9016 3.13963C13.5874 3.55772 14.1449 4.15648 14.5131 4.87033C14.8812 5.58418 15.0458 6.38558 14.9889 7.18675C14.9319 7.98792 14.6555 8.75795 14.19 9.4125C14.9974 9.91479 15.6191 10.6665 15.961 11.5538C16.3028 12.4411 16.3462 13.4157 16.0845 14.3299C15.8228 15.244 15.2704 16.048 14.5108 16.6201C13.7512 17.1921 12.8259 17.501 11.875 17.5H5C4.66848 17.5 4.35054 17.3683 4.11612 17.1339C3.8817 16.8995 3.75 16.5815 3.75 16.25V3.75C3.75 3.41848 3.8817 3.10054 4.11612 2.86612C4.35054 2.6317 4.66848 2.5 5 2.5ZM6.25 11.25V15H11.875C12.3723 15 12.8492 14.8025 13.2008 14.4508C13.5525 14.0992 13.75 13.6223 13.75 13.125C13.75 12.6277 13.5525 12.1508 13.2008 11.7992C12.8492 11.4475 12.3723 11.25 11.875 11.25H6.25ZM10.625 8.75C11.1223 8.75 11.5992 8.55246 11.9508 8.20083C12.3025 7.84919 12.5 7.37228 12.5 6.875C12.5 6.37772 12.3025 5.90081 11.9508 5.54917C11.5992 5.19754 11.1223 5 10.625 5H6.25V8.75H10.625Z" fill="white"/>
</svg>
