<svg width="20" height="20" viewBox="0 0 20 20" fill="none" xmlns="http://www.w3.org/2000/svg">
<g clip-path="url(#clip0_3186_3019)">
<rect width="20" height="20" rx="10" fill="#363636"/>
<rect x="2" y="2" width="16" height="16" rx="8" fill="#141414"/>
<path d="M12.0137 0.204848C13.7244 0.556545 15.3133 1.35016 16.622 2.50671C17.9307 3.66325 18.9137 5.14239 19.4731 6.79689C20.0326 8.4514 20.1489 10.2236 19.8106 11.937C19.4723 13.6505 18.6911 15.2454 17.5449 16.5632C16.3986 17.8809 14.9272 18.8754 13.2771 19.4478C11.627 20.0201 9.85583 20.1503 8.13979 19.8255C6.42375 19.5006 4.82273 18.7319 3.49607 17.596C2.16941 16.4601 1.16339 14.9965 0.578148 13.3509L2.3631 12.7161C2.83747 14.0499 3.6529 15.2362 4.72823 16.1569C5.80355 17.0777 7.10127 17.7007 8.49221 17.964C9.88315 18.2274 11.3188 18.1218 12.6563 17.6579C13.9937 17.194 15.1864 16.3879 16.1155 15.3198C17.0446 14.2517 17.6778 12.9589 17.952 11.57C18.2262 10.1812 18.1319 8.74478 17.6785 7.40371C17.225 6.06265 16.4282 4.86374 15.3675 3.9263C14.3067 2.98886 13.0189 2.34559 11.6322 2.06052L12.0137 0.204848Z" fill="#29E4DE"/>
</g>
<defs>
<clipPath id="clip0_3186_3019">
<rect width="20" height="20" rx="10" fill="white"/>
</clipPath>
</defs>
</svg>
