<svg width="16" height="16" viewBox="0 0 16 16" fill="none" xmlns="http://www.w3.org/2000/svg">
<path d="M7 10.6667C7 10.4015 7.10536 10.1471 7.29289 9.95958C7.48043 9.77204 7.73478 9.66669 8 9.66669C8.26522 9.66669 8.51957 9.77204 8.70711 9.95958C8.89464 10.1471 9 10.4015 9 10.6667C9 10.9319 8.89464 11.1863 8.70711 11.3738C8.51957 11.5613 8.26522 11.6667 8 11.6667C7.73478 11.6667 7.48043 11.5613 7.29289 11.3738C7.10536 11.1863 7 10.9319 7 10.6667Z" fill="white" fill-opacity="0.3"/>
<path fill-rule="evenodd" clip-rule="evenodd" d="M5.0807 7.06466L4.87003 5.17199C4.8433 4.92939 4.8433 4.68459 4.87003 4.44199L4.88536 4.30533C4.97086 3.53925 5.33575 2.83157 5.91024 2.31762C6.48474 1.80367 7.22853 1.51953 7.99936 1.51953C8.7702 1.51953 9.51399 1.80367 10.0885 2.31762C10.663 2.83157 11.0279 3.53925 11.1134 4.30533L11.1287 4.44199C11.1554 4.68511 11.1554 4.92844 11.1287 5.17199L10.918 7.06533L11.376 7.10133C11.7268 7.12923 12.0581 7.27389 12.3169 7.51221C12.5758 7.75053 12.7473 8.06874 12.804 8.41599C13.048 9.90652 13.048 11.4268 12.804 12.9173C12.7473 13.2646 12.5758 13.5828 12.3169 13.8211C12.0581 14.0594 11.7268 14.2041 11.376 14.232L10.3787 14.312C8.7947 14.4387 7.20403 14.4387 5.62003 14.312L4.6227 14.232C4.27194 14.2041 3.94067 14.0594 3.6818 13.8211C3.42294 13.5828 3.25144 13.2646 3.1947 12.9173C2.95073 11.4268 2.95073 9.90652 3.1947 8.41599C3.25144 8.06874 3.42294 7.75053 3.6818 7.51221C3.94067 7.27389 4.27194 7.12923 4.6227 7.10133L5.0807 7.06466ZM7.75003 2.53333C8.02941 2.50049 8.31253 2.52323 8.58309 2.60024C8.85365 2.67726 9.10631 2.80702 9.32652 2.98206C9.54673 3.1571 9.73015 3.37397 9.86622 3.62018C10.0023 3.86638 10.0883 4.13707 10.1194 4.41666L10.1347 4.55333C10.1534 4.72266 10.1534 4.89244 10.1347 5.06266L9.9207 6.98933C8.64112 6.90721 7.3576 6.90721 6.07803 6.98933L5.8647 5.06266C5.84611 4.89339 5.84611 4.7226 5.8647 4.55333L5.87936 4.41666C5.93254 3.93757 6.1464 3.49061 6.4861 3.14861C6.8258 2.80661 7.27131 2.58974 7.75003 2.53333ZM10.2994 8.01933C8.76846 7.89724 7.23027 7.89724 5.69936 8.01933L4.7027 8.09933C4.57467 8.1093 4.4537 8.16196 4.35917 8.24888C4.26464 8.33579 4.20203 8.45192 4.18136 8.57866C3.955 9.96191 3.955 11.3727 4.18136 12.756C4.20189 12.8829 4.26445 12.9991 4.35899 13.0862C4.45353 13.1732 4.57458 13.226 4.7027 13.236L5.70003 13.316C7.2307 13.438 8.76803 13.438 10.2994 13.316L11.2967 13.236C11.4247 13.2258 11.5456 13.173 11.64 13.086C11.7344 12.999 11.7969 12.8828 11.8174 12.756C12.0437 11.3727 12.0437 9.96191 11.8174 8.57866C11.7969 8.4519 11.7344 8.3357 11.64 8.24867C11.5456 8.16163 11.4247 8.10881 11.2967 8.09866L10.2994 8.01933Z" fill="white" fill-opacity="0.3"/>
</svg>
