<svg width="36" height="36" viewBox="0 0 36 36" fill="none" xmlns="http://www.w3.org/2000/svg">
<path opacity="0.4" d="M18.0021 27.93C12.9621 27.93 8.85205 23.83 8.85205 18.78V16.9C8.85205 16.51 9.17205 16.2 9.55205 16.2C9.93205 16.2 10.2521 16.52 10.2521 16.9V18.78C10.2521 23.05 13.7221 26.52 17.9921 26.52C22.2621 26.52 25.7321 23.05 25.7321 18.78V16.9C25.7321 16.51 26.0521 16.2 26.4321 16.2C26.812 16.2 27.1321 16.52 27.1321 16.9V18.78C27.1521 23.83 23.0421 27.93 18.0021 27.93Z" fill="#878787"/>
<path d="M17.9979 8C14.6379 8 11.8979 10.74 11.8979 14.1V18.79C11.8979 22.15 14.6379 24.89 17.9979 24.89C21.3579 24.89 24.0979 22.15 24.0979 18.79V14.1C24.0979 10.74 21.3579 8 17.9979 8ZM20.1779 16.59C20.1571 16.6676 20.1211 16.7403 20.0721 16.8039C20.0231 16.8675 19.962 16.9208 19.8923 16.9608C19.8226 17.0008 19.7457 17.0266 19.666 17.0367C19.5863 17.0469 19.5054 17.0412 19.4279 17.02C18.4068 16.74 17.3291 16.74 16.3079 17.02C15.9779 17.11 15.6479 16.92 15.5579 16.59C15.5368 16.5125 15.5311 16.4316 15.5412 16.3519C15.5514 16.2723 15.5772 16.1954 15.6171 16.1257C15.6571 16.056 15.7104 15.9949 15.7741 15.9459C15.8377 15.8968 15.9104 15.8609 15.9879 15.84C17.2179 15.5 18.5179 15.5 19.7479 15.84C20.0779 15.93 20.268 16.26 20.1779 16.59ZM21.0279 13.82C21.0012 13.8955 20.9597 13.9648 20.9057 14.024C20.8518 14.0831 20.7865 14.1309 20.7138 14.1644C20.6411 14.198 20.5625 14.2166 20.4825 14.2193C20.4025 14.222 20.3227 14.2086 20.2479 14.18C18.7176 13.62 17.0383 13.62 15.5079 14.18C15.4325 14.2088 15.3521 14.2223 15.2713 14.2197C15.1906 14.2171 15.1112 14.1986 15.0377 14.1651C14.9642 14.1316 14.8981 14.0839 14.8432 14.0246C14.7883 13.9654 14.7458 13.8958 14.7179 13.82C14.6079 13.51 14.7679 13.16 15.0879 13.04C16.8879 12.39 18.8679 12.39 20.6579 13.04C20.9779 13.16 21.1379 13.51 21.0279 13.82Z" fill="#878787"/>
</svg>
