<svg width="32" height="32" viewBox="0 0 32 32" fill="none" xmlns="http://www.w3.org/2000/svg">
<g opacity="0.5">
<path opacity="0.4" d="M20.64 2.6665H10.04C5.42669 2.6665 2.68002 5.41316 2.68002 10.0265V20.6265C2.68002 25.2398 5.44002 27.9865 10.04 27.9865H20.64C25.2534 27.9865 28 25.2398 28 20.6265V10.0265C28 5.41316 25.24 2.6665 20.64 2.6665Z" fill="#878787"/>
<path d="M29.28 25.12L27.1066 25.8533C26.5066 26.0533 26.0266 26.52 25.8266 27.1333L25.0933 29.3067C24.4666 31.1867 21.8266 31.1467 21.24 29.2667L18.7733 21.3333C18.2933 19.76 19.7466 18.2933 21.3066 18.7867L29.2533 21.2533C31.12 21.84 31.1466 24.4933 29.28 25.12Z" fill="#878787"/>
</g>
</svg>
