<svg width="24" height="24" viewBox="0 0 24 24" fill="none" xmlns="http://www.w3.org/2000/svg">
<path d="M3.00991 13.28C2.94223 12.0693 3.31817 10.8754 4.06734 9.92189C4.81652 8.96839 5.88755 8.32066 7.07991 8.09998L6.28991 8.87998C6.19733 8.97256 6.12389 9.08247 6.07378 9.20344C6.02368 9.3244 5.99789 9.45405 5.99789 9.58498C5.99789 9.84941 6.10293 10.103 6.28991 10.29C6.47689 10.477 6.73048 10.582 6.99491 10.582C7.25934 10.582 7.51293 10.477 7.69991 10.29L10.2899 7.69998C10.3826 7.60747 10.4562 7.49758 10.5063 7.3766C10.5565 7.25563 10.5824 7.12595 10.5824 6.99498C10.5824 6.86401 10.5565 6.73433 10.5063 6.61336C10.4562 6.49238 10.3826 6.38249 10.2899 6.28998L7.70991 3.69998C7.52293 3.513 7.26934 3.40796 7.00491 3.40796C6.74049 3.40796 6.48689 3.513 6.29991 3.69998C6.11293 3.88696 6.00789 4.14055 6.00789 4.40498C6.00789 4.66941 6.11293 4.923 6.29991 5.10998L7.17991 5.98998V6.04998C5.38974 6.26269 3.75082 7.15834 2.60499 8.5501C1.45916 9.94187 0.894901 11.7223 1.02991 13.52C1.28991 17.22 4.54991 20 8.25991 20H9.99991C10.5499 20 10.9999 19.55 10.9999 19C10.9999 18.45 10.5499 18 9.99991 18H8.21991C5.51991 18 3.14991 15.96 3.00991 13.28ZM12.9999 15V18C12.9999 19.1 13.8999 20 14.9999 20H19.9999C21.0999 20 21.9999 19.1 21.9999 18V15C21.9999 13.9 21.0999 13 19.9999 13H14.9999C13.8999 13 12.9999 13.9 12.9999 15ZM19.9999 18H14.9999V15H19.9999V18ZM19.9999 3.99998H14.9999C13.8999 3.99998 12.9999 4.89998 12.9999 5.99998V8.99998C12.9999 10.1 13.8999 11 14.9999 11H19.9999C21.0999 11 21.9999 10.1 21.9999 8.99998V5.99998C21.9999 4.89998 21.0999 3.99998 19.9999 3.99998Z" fill="white" fill-opacity="0.3"/>
</svg>
