<svg width="32" height="32" viewBox="0 0 32 32" fill="none" xmlns="http://www.w3.org/2000/svg">
<g opacity="0.5">
<path d="M28.9467 15.1332L24.9333 17.6666L16.8267 9.55991L19.3467 5.54656C20.52 3.69323 22.88 3.61326 24.6 5.33326L29.1467 9.87989C30.7733 11.5199 30.6667 14.0399 28.9467 15.1332Z" fill="#878787"/>
<path opacity="0.4" d="M21.3333 28.3867L8.85335 29.8534C7.98668 29.9601 7.21335 29.8268 6.56001 29.5068C5.86668 29.1601 5.32001 28.6268 4.97334 27.9201C4.65334 27.2668 4.53335 26.5067 4.62668 25.6534L6.01334 14.0401C6.24001 14.1601 6.49335 14.2668 6.74668 14.3468C7.34668 14.5601 7.98668 14.6667 8.66668 14.6667C10.1867 14.6667 11.56 14.1068 12.6134 13.1734C13.08 12.7734 13.48 12.2934 13.8 11.7601C14.08 11.2934 14.2934 10.8001 14.44 10.2668C14.52 10.0001 14.5734 9.72009 14.6134 9.42676L16.8267 9.56006L24.9333 17.6801L25.28 23.5734C25.6134 26.8801 24.4667 28.0267 21.3333 28.3867Z" fill="#878787"/>
<path d="M11.7067 24.3732L6.57331 29.5065C5.86665 29.1598 5.33333 28.6265 4.98666 27.9198L10.12 22.7865C10.5733 22.3465 11.28 22.3465 11.7067 22.7865C12.1467 23.2265 12.1467 23.9332 11.7067 24.3732Z" fill="#878787"/>
<path d="M8.66666 2.6665C7.25332 2.6665 5.94666 3.15982 4.91999 3.98649C3.53333 5.07982 2.66666 6.77317 2.66666 8.6665C2.66666 9.7865 2.98665 10.8532 3.53332 11.7598C4.25332 12.9598 5.38665 13.8932 6.74665 14.3465C7.34665 14.5599 7.98666 14.6665 8.66666 14.6665C10.1867 14.6665 11.56 14.1065 12.6133 13.1732C13.08 12.7732 13.48 12.2932 13.8 11.7598C14.08 11.2932 14.2933 10.7999 14.44 10.2665C14.5867 9.75985 14.6667 9.21317 14.6667 8.6665C14.6667 5.3465 11.9867 2.6665 8.66666 2.6665ZM10.88 9.6665H9.69333V10.9065C9.69333 11.4532 9.24 11.9065 8.69333 11.9065C8.14666 11.9065 7.69333 11.4532 7.69333 10.9065V9.6665H6.39999C5.85333 9.6665 5.39999 9.21317 5.39999 8.6665C5.39999 8.11984 5.85333 7.6665 6.39999 7.6665H7.69333V6.42651C7.69333 5.87985 8.14666 5.42651 8.69333 5.42651C9.24 5.42651 9.69333 5.87985 9.69333 6.42651V7.6665H10.88C11.4267 7.6665 11.88 8.11984 11.88 8.6665C11.88 9.21317 11.44 9.6665 10.88 9.6665Z" fill="#878787"/>
</g>
</svg>
