<svg width="36" height="36" viewBox="0 0 36 36" fill="none" xmlns="http://www.w3.org/2000/svg">
<path opacity="0.4" d="M21.48 9H13.52C10.07 9 8 11.06 8 14.52V22.47C8 25.94 10.07 28 13.52 28H21.47C24.93 28 26.99 25.94 26.99 22.48V14.52C27 11.06 24.93 9 21.48 9Z" fill="#878787"/>
<path d="M27.0201 8.97796C25.2301 7.17796 23.4801 7.13796 21.6401 8.97796L20.5101 10.098C20.4101 10.198 20.3801 10.338 20.4201 10.468C21.1201 12.918 23.0801 14.878 25.5301 15.578C25.5601 15.588 25.6101 15.588 25.6401 15.588C25.7401 15.588 25.8401 15.548 25.9101 15.478L27.0201 14.358C27.9301 13.448 28.3801 12.578 28.3801 11.688C28.3801 10.788 27.9301 9.89796 27.0201 8.97796ZM23.8601 16.42C23.5901 16.29 23.3301 16.16 23.0901 16.01C22.8901 15.89 22.6901 15.76 22.5001 15.62C22.3401 15.52 22.1601 15.37 21.9801 15.22C21.9601 15.21 21.9001 15.16 21.8201 15.08C21.5101 14.83 21.1801 14.49 20.8701 14.12C20.8501 14.1 20.7901 14.04 20.7401 13.95C20.6401 13.84 20.4901 13.65 20.3601 13.44C20.2501 13.3 20.1201 13.1 20.0001 12.89C19.8501 12.64 19.7201 12.39 19.6001 12.13C19.4701 11.85 19.3701 11.59 19.2801 11.34L13.9001 16.72C13.5501 17.07 13.2101 17.73 13.1401 18.22L12.7101 21.2C12.6201 21.83 12.7901 22.42 13.1801 22.81C13.5101 23.14 13.9601 23.31 14.4601 23.31C14.5701 23.31 14.6801 23.3 14.7901 23.29L17.7601 22.87C18.2501 22.8 18.9101 22.47 19.2601 22.11L24.6401 16.73C24.3901 16.65 24.1401 16.54 23.8601 16.42Z" fill="#878787"/>
</svg>
