<svg width="24" height="24" viewBox="0 0 24 24" fill="none" xmlns="http://www.w3.org/2000/svg">
<path d="M15 8H15.01M12 21H6C5.20435 21 4.44129 20.6839 3.87868 20.1213C3.31607 19.5587 3 18.7956 3 18V6C3 5.20435 3.31607 4.44129 3.87868 3.87868C4.44129 3.31607 5.20435 3 6 3H18C18.7956 3 19.5587 3.31607 20.1213 3.87868C20.6839 4.44129 21 5.20435 21 6V12" stroke="currentColor" stroke-width="1.5" stroke-linecap="round" stroke-linejoin="round"/>
<path d="M3 15.9998L8 10.9998C8.928 10.1068 10.072 10.1068 11 10.9998L14 13.9998L15 12.9998C15.48 12.5388 16.016 12.3158 16.551 12.3298M19.001 20.9998C18.4706 20.9998 17.9619 20.7891 17.5868 20.414C17.2117 20.039 17.001 19.5303 17.001 18.9998C17.001 18.4694 17.2117 17.9607 17.5868 17.5856C17.9619 17.2105 18.4706 16.9998 19.001 16.9998M19.001 20.9998C19.5314 20.9998 20.0401 20.7891 20.4152 20.414C20.7903 20.039 21.001 19.5303 21.001 18.9998C21.001 18.4694 20.7903 17.9607 20.4152 17.5856C20.0401 17.2105 19.5314 16.9998 19.001 16.9998M19.001 20.9998V22.4998M19.001 16.9998V15.4998M22.032 17.2498L20.733 17.9998M17.27 19.9998L15.97 20.7498M15.97 17.2498L17.27 17.9998M20.733 19.9998L22.033 20.7498" stroke="currentColor" stroke-width="1.5" stroke-linecap="round" stroke-linejoin="round"/>
</svg>
