<svg width="28" height="28" viewBox="0 0 28 28" fill="none" xmlns="http://www.w3.org/2000/svg">
<path opacity="0.4" d="M8.29489 6.95431L18.8182 3.44264C23.5432 1.86764 26.1099 4.44597 24.5466 9.17097L21.0349 19.6943C18.6782 26.776 14.8049 26.776 12.4482 19.6943L11.4099 16.5676L8.28322 15.5293C1.21322 13.1843 1.21322 9.32264 8.29489 6.95431Z" fill="#29E4DE"/>
<path d="M14.1399 14.4435C13.9182 14.4435 13.6966 14.3618 13.5216 14.1868C13.3588 14.0222 13.2676 13.8 13.2676 13.5685C13.2676 13.337 13.3588 13.1148 13.5216 12.9502L17.9549 8.4935C18.2932 8.15516 18.8532 8.15516 19.1916 8.4935C19.5299 8.83183 19.5299 9.39183 19.1916 9.73016L14.7582 14.1868C14.5832 14.3502 14.3616 14.4435 14.1399 14.4435Z" fill="#29E4DE"/>
</svg>
