<svg width="24" height="24" viewBox="0 0 24 24" fill="none" xmlns="http://www.w3.org/2000/svg">
<path d="M18.3645 7.243L17.6575 6.536C16.3185 5.19669 14.5477 4.37585 12.6603 4.21953C10.7729 4.06321 8.89126 4.58155 7.35015 5.68233C5.80904 6.78311 4.70842 8.39493 4.24414 10.231C3.77985 12.0671 3.98199 14.0083 4.81461 15.7093C5.64723 17.4104 7.05632 18.7608 8.79116 19.5205C10.526 20.2801 12.4741 20.3997 14.2888 19.8578C16.1035 19.316 17.6671 18.148 18.7015 16.5615C19.7358 14.975 20.1738 13.0731 19.9375 11.194M18.3645 7.243L14.1215 7.244M18.3645 7.243V3" stroke="white" stroke-opacity="0.3" stroke-width="1.5" stroke-linecap="round" stroke-linejoin="round"/>
</svg>
