<svg width="32" height="32" viewBox="0 0 32 32" fill="none" xmlns="http://www.w3.org/2000/svg">
<path opacity="0.4" d="M15.3332 27.9998C22.3288 27.9998 27.9998 22.3288 27.9998 15.3332C27.9998 8.33756 22.3288 2.6665 15.3332 2.6665C8.33756 2.6665 2.6665 8.33756 2.6665 15.3332C2.6665 22.3288 8.33756 27.9998 15.3332 27.9998Z" fill="#878787"/>
<path d="M28.3999 29.3332C28.1599 29.3332 27.9199 29.2399 27.7466 29.0666L25.2666 26.5866C24.9066 26.2266 24.9066 25.6399 25.2666 25.2666C25.6266 24.9066 26.2132 24.9066 26.5866 25.2666L29.0666 27.7466C29.4266 28.1066 29.4266 28.6932 29.0666 29.0666C28.8799 29.2399 28.6399 29.3332 28.3999 29.3332Z" fill="#878787"/>
</svg>
