<svg width="24" height="24" viewBox="0 0 24 24" fill="none" xmlns="http://www.w3.org/2000/svg">
<path d="M5.616 20C5.168 20 4.78667 19.8427 4.472 19.528C4.15733 19.2133 4 18.8323 4 18.385V5.615C4 5.16833 4.15733 4.78733 4.472 4.472C4.78667 4.15733 5.168 4 5.616 4H18.385C18.8317 4 19.2127 4.15733 19.528 4.472C19.8427 4.78667 20 5.168 20 5.616V18.385C20 18.8317 19.8427 19.2127 19.528 19.528C19.2133 19.8427 18.8323 20 18.385 20H5.616ZM5.616 19H18.385C18.5643 19 18.7117 18.9423 18.827 18.827C18.9423 18.7117 19 18.5643 19 18.385V5.615C19 5.43567 18.9423 5.28833 18.827 5.173C18.7117 5.05767 18.5643 5 18.385 5H5.615C5.43567 5 5.28833 5.05767 5.173 5.173C5.05767 5.28833 5 5.436 5 5.616V18.385C5 18.5643 5.05767 18.7117 5.173 18.827C5.28833 18.9423 5.436 19 5.616 19Z" fill="currentColor"/>
<path d="M5 19V5M5.616 20C5.168 20 4.78667 19.8427 4.472 19.528C4.15733 19.2133 4 18.8323 4 18.385V5.615C4 5.16833 4.15733 4.78733 4.472 4.472C4.78667 4.15733 5.168 4 5.616 4H18.385C18.8317 4 19.2127 4.15733 19.528 4.472C19.8427 4.78667 20 5.168 20 5.616V18.385C20 18.8317 19.8427 19.2127 19.528 19.528C19.2133 19.8427 18.8323 20 18.385 20H5.616ZM5.616 19H18.385C18.5643 19 18.7117 18.9423 18.827 18.827C18.9423 18.7117 19 18.5643 19 18.385V5.615C19 5.43567 18.9423 5.28833 18.827 5.173C18.7117 5.05767 18.5643 5 18.385 5H5.615C5.43567 5 5.28833 5.05767 5.173 5.173C5.05767 5.28833 5 5.436 5 5.616V18.385C5 18.5643 5.05767 18.7117 5.173 18.827C5.28833 18.9423 5.436 19 5.616 19Z" stroke="currentColor"/>
</svg>
