<svg width="24" height="24" viewBox="0 0 24 24" fill="none" xmlns="http://www.w3.org/2000/svg">
<path d="M8.99961 10.7996C9.31787 10.7996 9.62309 10.6732 9.84814 10.4481C10.0732 10.2231 10.1996 9.91787 10.1996 9.59961C10.1996 9.28135 10.0732 8.97612 9.84814 8.75108C9.62309 8.52604 9.31787 8.39961 8.99961 8.39961C8.68135 8.39961 8.37612 8.52604 8.15108 8.75108C7.92604 8.97612 7.79961 9.28135 7.79961 9.59961C7.79961 9.91787 7.92604 10.2231 8.15108 10.4481C8.37612 10.6732 8.68135 10.7996 8.99961 10.7996ZM16.1996 9.59961C16.1996 9.91787 16.0732 10.2231 15.8481 10.4481C15.6231 10.6732 15.3179 10.7996 14.9996 10.7996C14.6813 10.7996 14.3761 10.6732 14.1511 10.4481C13.926 10.2231 13.7996 9.91787 13.7996 9.59961C13.7996 9.28135 13.926 8.97612 14.1511 8.75108C14.3761 8.52604 14.6813 8.39961 14.9996 8.39961C15.3179 8.39961 15.6231 8.52604 15.8481 8.75108C16.0732 8.97612 16.1996 9.28135 16.1996 9.59961ZM3.59961 7.19961V16.7996C3.59961 17.7544 3.97889 18.6701 4.65402 19.3452C5.32916 20.0203 6.24483 20.3996 7.19961 20.3996H13.6544L13.7504 20.3972C13.8156 20.4026 13.8813 20.3974 13.9448 20.3816C14.4768 20.317 14.9719 20.0762 15.3512 19.6976L19.6964 15.3512C20.0755 14.9721 20.3167 14.477 20.3816 13.9448C20.3974 13.8813 20.4026 13.8156 20.3972 13.7504L20.3996 13.6544V7.19961C20.3996 6.24483 20.0203 5.32916 19.3452 4.65402C18.6701 3.97889 17.7544 3.59961 16.7996 3.59961H7.19961C6.24483 3.59961 5.32916 3.97889 4.65402 4.65402C3.97889 5.32916 3.59961 6.24483 3.59961 7.19961ZM19.1996 7.19961V13.1996H16.4996C15.0476 13.1996 13.8164 14.1356 13.3748 15.4376C12.9256 15.5477 12.4645 15.6021 12.002 15.5996C10.904 15.5996 10.094 15.326 9.56841 15.0632C9.36273 14.9632 9.16705 14.8439 8.98401 14.7068C8.92893 14.6651 8.87568 14.6211 8.82441 14.5748L8.82081 14.5724C8.70783 14.4602 8.55491 14.3975 8.39569 14.3981C8.23647 14.3986 8.084 14.4624 7.97181 14.5754C7.85962 14.6884 7.79691 14.8413 7.79748 15.0005C7.79804 15.1597 7.86183 15.3122 7.97481 15.4244L7.97721 15.4256L7.97961 15.428L7.98561 15.434L8.00361 15.4508L8.06121 15.5024C8.10921 15.5448 8.17721 15.5996 8.26521 15.6668C8.44041 15.7988 8.69601 15.968 9.03201 16.136C9.70521 16.472 10.6976 16.7996 12.002 16.7996C12.434 16.798 12.8332 16.7648 13.1996 16.7V19.1996H7.19961C6.56309 19.1996 5.95264 18.9468 5.50255 18.4967C5.05247 18.0466 4.79961 17.4361 4.79961 16.7996V7.19961C4.79961 6.56309 5.05247 5.95264 5.50255 5.50255C5.95264 5.05247 6.56309 4.79961 7.19961 4.79961H16.7996C17.4361 4.79961 18.0466 5.05247 18.4967 5.50255C18.9468 5.95264 19.1996 6.56309 19.1996 7.19961ZM14.5028 18.848C14.4702 18.8808 14.4358 18.9116 14.3996 18.9404V16.4996C14.3996 15.3404 15.3404 14.3996 16.4996 14.3996H18.9404C18.9116 14.4356 18.8808 14.47 18.848 14.5028L14.5028 18.848Z" fill="currentColor" stroke="currentColor" stroke-width="0.5"/>
</svg>
