<svg width="38" height="39" viewBox="0 0 38 39" fill="none" xmlns="http://www.w3.org/2000/svg">
<path opacity="0.4" d="M34.8629 27.1311L29.9071 15.5411C29.0046 13.4194 27.6587 12.2161 26.1229 12.1369C24.6029 12.0578 23.1304 13.1186 22.0062 15.1453L18.9979 20.5444C18.3646 21.6844 17.4621 22.3653 16.4804 22.4444C15.4829 22.5394 14.4854 22.0169 13.6779 20.9878L13.3296 20.5444C12.2054 19.1353 10.8121 18.4544 9.38707 18.5969C7.96207 18.7394 6.7429 19.7211 5.9354 21.3203L3.19623 26.7828C2.21457 28.7619 2.30957 31.0578 3.4654 32.9261C4.62123 34.7944 6.63207 35.9186 8.8329 35.9186H29.0362C31.1579 35.9186 33.1371 34.8578 34.3087 33.0844C35.5121 31.3111 35.7021 29.0786 34.8629 27.1311Z" fill="url(#paint0_linear_225_24241)"/>
<path d="M11.0417 13.7697C13.9974 13.7697 16.3934 11.3737 16.3934 8.41807C16.3934 5.46243 13.9974 3.06641 11.0417 3.06641C8.08609 3.06641 5.69006 5.46243 5.69006 8.41807C5.69006 11.3737 8.08609 13.7697 11.0417 13.7697Z" fill="url(#paint1_linear_225_24241)"/>
<defs>
<linearGradient id="paint0_linear_225_24241" x1="34.3858" y1="11.9654" x2="30.7898" y2="39.6219" gradientUnits="userSpaceOnUse">
<stop stop-color="#00FFC4"/>
<stop offset="0.880723" stop-color="#1A5C66"/>
</linearGradient>
<linearGradient id="paint1_linear_225_24241" x1="16.0704" y1="2.99106" x2="13.8686" y2="15.2511" gradientUnits="userSpaceOnUse">
<stop stop-color="#00FFC4"/>
<stop offset="0.880723" stop-color="#1A5C66"/>
</linearGradient>
</defs>
</svg>
