<svg width="37" height="36" viewBox="0 0 37 36" fill="none" xmlns="http://www.w3.org/2000/svg">
<path opacity="0.4" d="M13.6717 21H6.66666C5.01666 21 3.66666 22.35 3.66666 24V33H13.6717V21Z" fill="url(#paint0_linear_225_24154)"/>
<path d="M20.656 15H16.651C15.001 15 13.651 16.35 13.651 18V33H23.656V18C23.656 16.35 22.321 15 20.656 15Z" fill="url(#paint1_linear_225_24154)"/>
<path opacity="0.4" d="M30.6638 25.5H23.6588V33H33.6638V28.5C33.6638 26.85 32.3138 25.5 30.6638 25.5Z" fill="url(#paint2_linear_225_24154)"/>
<path d="M23.1841 7.27572C23.6491 6.81072 23.8291 6.25572 23.6791 5.77572C23.5291 5.29572 23.0641 4.95073 22.4041 4.84573L20.9641 4.60572C20.9041 4.59072 20.7691 4.5007 20.7391 4.4407L19.9441 2.8507C19.3441 1.6357 17.9791 1.6357 17.3791 2.8507L16.5841 4.4407C16.5541 4.5007 16.4191 4.59072 16.3591 4.60572L14.9191 4.84573C14.2591 4.95073 13.8091 5.29572 13.6441 5.77572C13.4941 6.25572 13.6741 6.81072 14.1391 7.27572L15.2491 8.40072C15.2941 8.44572 15.3541 8.62573 15.3391 8.68573L15.0241 10.0657C14.7841 11.0857 15.1741 11.5507 15.4291 11.7457C15.6841 11.9257 16.2391 12.1657 17.1541 11.6257L18.5041 10.8307C18.5641 10.7857 18.7591 10.7857 18.8191 10.8307L20.1691 11.6257C20.5891 11.8807 20.9341 11.9557 21.2041 11.9557C21.5191 11.9557 21.7441 11.8357 21.8791 11.7457C22.1341 11.5657 22.5241 11.1007 22.2841 10.0657L21.9691 8.68573C21.9541 8.61073 21.9991 8.44572 22.0591 8.40072L23.1841 7.27572Z" fill="url(#paint3_linear_225_24154)"/>
<defs>
<linearGradient id="paint0_linear_225_24154" x1="13.3697" y1="20.9155" x2="10.449" y2="34.475" gradientUnits="userSpaceOnUse">
<stop stop-color="#00FFC4"/>
<stop offset="0.880723" stop-color="#1A5C66"/>
</linearGradient>
<linearGradient id="paint1_linear_225_24154" x1="23.3541" y1="14.8733" x2="17.1275" y2="34.1444" gradientUnits="userSpaceOnUse">
<stop stop-color="#00FFC4"/>
<stop offset="0.880723" stop-color="#1A5C66"/>
</linearGradient>
<linearGradient id="paint2_linear_225_24154" x1="33.3619" y1="25.4472" x2="32.1893" y2="34.1573" gradientUnits="userSpaceOnUse">
<stop stop-color="#00FFC4"/>
<stop offset="0.880723" stop-color="#1A5C66"/>
</linearGradient>
<linearGradient id="paint3_linear_225_24154" x1="23.4249" y1="1.86893" x2="21.3869" y2="13.3525" gradientUnits="userSpaceOnUse">
<stop stop-color="#00FFC4"/>
<stop offset="0.880723" stop-color="#1A5C66"/>
</linearGradient>
</defs>
</svg>
