<svg width="16" height="16" viewBox="0 0 16 16" fill="none" xmlns="http://www.w3.org/2000/svg">
<path d="M7 10.6667C7 10.4015 7.10536 10.1471 7.29289 9.95958C7.48043 9.77204 7.73478 9.66669 8 9.66669C8.26522 9.66669 8.51957 9.77204 8.70711 9.95958C8.89464 10.1471 9 10.4015 9 10.6667C9 10.9319 8.89464 11.1863 8.70711 11.3738C8.51957 11.5613 8.26522 11.6667 8 11.6667C7.73478 11.6667 7.48043 11.5613 7.29289 11.3738C7.10536 11.1863 7 10.9319 7 10.6667Z" fill="white" fill-opacity="0.3"/>
<path fill-rule="evenodd" clip-rule="evenodd" d="M6.53936 2.67003C6.80069 2.56599 7.08001 2.51466 7.36125 2.51898C7.64249 2.52331 7.9201 2.5832 8.1781 2.69523C8.4361 2.80725 8.6694 2.96919 8.86458 3.17173C9.05976 3.37426 9.21296 3.61339 9.31536 3.87536L9.36536 4.00336C9.42759 4.16292 9.47159 4.32692 9.49736 4.49536L9.64203 5.44403L10.6307 5.29336L10.486 4.34469C10.4491 4.10361 10.3858 3.86731 10.2974 3.64003L10.2474 3.51136C9.96667 2.79326 9.43107 2.20386 8.74303 1.85593C8.05499 1.50799 7.26281 1.42596 6.51808 1.62551C5.77334 1.82506 5.12832 2.2922 4.70643 2.93754C4.28454 3.58288 4.1154 4.36112 4.23136 5.12336L4.25136 5.25936C4.2887 5.50158 4.35181 5.73669 4.4407 5.96469L4.87736 7.08136L4.6227 7.10136C4.27194 7.12926 3.94067 7.27392 3.6818 7.51224C3.42294 7.75056 3.25144 8.06877 3.1947 8.41603C2.95073 9.90655 2.95073 11.4268 3.1947 12.9174C3.25144 13.2646 3.42294 13.5828 3.6818 13.8211C3.94067 14.0595 4.27194 14.2041 4.6227 14.232L5.62003 14.312C7.20403 14.4387 8.7947 14.4387 10.3787 14.312L11.376 14.232C11.7268 14.2041 12.0581 14.0595 12.3169 13.8211C12.5758 13.5828 12.7473 13.2646 12.804 12.9174C13.048 11.4268 13.048 9.90655 12.804 8.41603C12.7473 8.06877 12.5758 7.75056 12.3169 7.51224C12.0581 7.27392 11.7268 7.12926 11.376 7.10136L10.3787 7.02136C8.89464 6.90337 7.40385 6.89602 5.9187 6.99936L5.37203 5.60069C5.31043 5.44198 5.26639 5.27699 5.2407 5.10869L5.21936 4.97336C5.14676 4.49677 5.23773 4.00963 5.47744 3.59136C5.71714 3.17308 6.09145 2.84833 6.53936 2.67003ZM10.2994 8.01869C8.76846 7.89661 7.23027 7.89661 5.69936 8.01869L4.70203 8.09869C4.57412 8.10881 4.45331 8.16154 4.35891 8.24844C4.26452 8.33534 4.202 8.45139 4.18136 8.57803C3.955 9.96127 3.955 11.3721 4.18136 12.7554C4.20186 12.8821 4.26432 12.9983 4.35873 13.0854C4.45314 13.1724 4.57403 13.2252 4.70203 13.2354L5.70003 13.3154C7.2307 13.4374 8.76803 13.4374 10.2987 13.3154L11.296 13.2354C11.4242 13.2254 11.5452 13.1726 11.6397 13.0856C11.7343 12.9985 11.7968 12.8822 11.8174 12.7554C12.0437 11.3721 12.0437 9.96127 11.8174 8.57803C11.7968 8.45117 11.7343 8.33488 11.6397 8.24784C11.5452 8.16079 11.4242 8.10803 11.296 8.09803L10.2994 8.01869Z" fill="white" fill-opacity="0.3"/>
</svg>
