<svg width="41" height="41" viewBox="0 0 41 41" fill="none" xmlns="http://www.w3.org/2000/svg">
<path d="M3.8335 8.83329C3.8335 8.39127 4.00909 7.96734 4.32165 7.65478C4.63421 7.34222 5.05814 7.16663 5.50016 7.16663H35.5002C35.9422 7.16663 36.3661 7.34222 36.6787 7.65478C36.9912 7.96734 37.1668 8.39127 37.1668 8.83329V32.1666C37.1668 32.6087 36.9912 33.0326 36.6787 33.3451C36.3661 33.6577 35.9422 33.8333 35.5002 33.8333H5.50016C5.05814 33.8333 4.63421 33.6577 4.32165 33.3451C4.00909 33.0326 3.8335 32.6087 3.8335 32.1666V8.83329Z" stroke="white" stroke-linejoin="round"/>
<path d="M30.5002 7.16663V33.8333M10.5002 7.16663V33.8333M32.1668 15.5H37.1668M32.1668 25.5H37.1668M3.8335 15.5H8.8335M3.8335 13.8333V17.1666M8.00016 7.16663H13.0002M8.00016 33.8333H13.0002M28.0002 7.16663H33.0002M28.0002 33.8333H33.0002M3.8335 25.5H8.8335M3.8335 23.8333V27.1666M37.1668 23.8333V27.1666M37.1668 13.8333V17.1666" stroke="white" stroke-linecap="round" stroke-linejoin="round"/>
<path d="M18 16.3333L24.6667 20.4999L18 24.6666V16.3333Z" stroke="white" stroke-linejoin="round"/>
</svg>
