<svg width="64" height="64" viewBox="0 0 64 64" fill="none" xmlns="http://www.w3.org/2000/svg">
<rect width="64" height="64" rx="32" fill="#2BD9D3"/>
<g clip-path="url(#clip0_225_45924)">
<path d="M25.3735 16.112C23.6711 16.1923 22.5085 16.464 21.4922 16.8634C20.4403 17.2733 19.5488 17.8234 18.6618 18.7136C17.7747 19.6038 17.2285 20.496 16.8215 21.5494C16.4275 22.568 16.1607 23.7315 16.0855 25.4349C16.0103 27.1382 15.9936 27.6858 16.0019 32.0307C16.0103 36.3757 16.0295 36.9203 16.112 38.6272C16.1933 40.3293 16.464 41.4915 16.8634 42.5082C17.2739 43.56 17.8234 44.4512 18.7139 45.3386C19.6045 46.2259 20.496 46.7709 21.552 47.1786C22.5696 47.5718 23.7335 47.84 25.4365 47.9146C27.1395 47.9891 27.6877 48.0064 32.0314 47.9981C36.3751 47.9898 36.9219 47.9706 38.6285 47.8896C40.3351 47.8086 41.4912 47.536 42.5082 47.1386C43.56 46.727 44.4519 46.1786 45.3386 45.2877C46.2253 44.3968 46.7712 43.504 47.1779 42.4499C47.5722 41.4323 47.84 40.2685 47.9139 38.5667C47.9885 36.8589 48.0061 36.3136 47.9978 31.9693C47.9895 27.625 47.9699 27.0803 47.889 25.3741C47.808 23.6678 47.537 22.5091 47.1379 21.4918C46.7267 20.44 46.1779 19.5494 45.2877 18.6614C44.3975 17.7734 43.504 17.2278 42.4503 16.8221C41.432 16.4282 40.2688 16.1597 38.5658 16.0861C36.8627 16.0125 36.3146 15.9936 31.9693 16.0019C27.624 16.0102 27.08 16.0288 25.3735 16.112ZM25.5603 45.0362C24.0003 44.9683 23.1533 44.7091 22.5888 44.4922C21.8413 44.2042 21.3088 43.856 20.7463 43.2989C20.1837 42.7418 19.8381 42.2074 19.5463 41.4614C19.3271 40.897 19.0631 40.0509 18.9901 38.4909C18.9107 36.8048 18.8941 36.2986 18.8848 32.0269C18.8755 27.7552 18.8919 27.2496 18.9658 25.5629C19.0323 24.0042 19.2931 23.1562 19.5098 22.592C19.7978 21.8435 20.1447 21.312 20.7031 20.7498C21.2615 20.1875 21.7943 19.8413 22.5408 19.5494C23.1047 19.3293 23.9507 19.0675 25.5101 18.9933C27.1975 18.9133 27.7031 18.8973 31.9741 18.888C36.2451 18.8787 36.752 18.8947 38.44 18.969C39.9987 19.0368 40.8471 19.295 41.4106 19.513C42.1584 19.801 42.6906 20.1469 43.2528 20.7062C43.8151 21.2656 44.1616 21.7965 44.4535 22.5446C44.6739 23.1069 44.9357 23.9526 45.0093 25.513C45.0896 27.2003 45.1079 27.7062 45.1155 31.977C45.1232 36.2477 45.1082 36.7549 45.0343 38.441C44.9661 40.001 44.7075 40.8483 44.4903 41.4134C44.2023 42.1606 43.8551 42.6934 43.2963 43.2554C42.7376 43.8173 42.2055 44.1635 41.4586 44.4554C40.8954 44.6752 40.0483 44.9376 38.4903 45.0118C36.8029 45.0912 36.2973 45.1078 32.0247 45.1171C27.752 45.1264 27.248 45.1091 25.5607 45.0362M38.6039 23.4486C38.6045 23.8284 38.7177 24.1994 38.9293 24.5149C39.1408 24.8303 39.4411 25.0758 39.7922 25.2206C40.1433 25.3653 40.5295 25.4026 40.9018 25.3279C41.2741 25.2531 41.616 25.0696 41.884 24.8006C42.152 24.5316 42.3343 24.1891 42.4077 23.8165C42.4811 23.4439 42.4423 23.0579 42.2963 22.7073C42.1503 22.3567 41.9036 22.0573 41.5874 21.8469C41.2713 21.6366 40.8998 21.5247 40.52 21.5254C40.0109 21.5264 39.5231 21.7296 39.1637 22.0903C38.8044 22.4509 38.603 22.9395 38.6039 23.4486ZM23.7847 32.016C23.7936 36.5536 27.4787 40.2237 32.0154 40.215C36.552 40.2064 40.2247 36.5216 40.216 31.984C40.2074 27.4464 36.5213 23.7754 31.984 23.7843C27.4467 23.7933 23.776 27.479 23.7847 32.016ZM26.6666 32.0102C26.6645 30.9554 26.9753 29.9236 27.5596 29.0454C28.1439 28.1671 28.9755 27.4819 29.9492 27.0763C30.923 26.6707 31.9952 26.5629 33.0302 26.7667C34.0652 26.9704 35.0165 27.4765 35.7639 28.2209C36.5112 28.9653 37.0211 29.9146 37.2289 30.9488C37.4367 31.983 37.3332 33.0556 36.9315 34.0309C36.5298 35.0063 35.8478 35.8406 34.9719 36.4284C34.096 37.0162 33.0654 37.331 32.0106 37.3331C31.3102 37.3346 30.6163 37.1981 29.9687 36.9313C29.321 36.6646 28.7322 36.2729 28.236 35.7786C27.7397 35.2844 27.3457 34.6971 27.0764 34.0505C26.8072 33.404 26.6679 32.7107 26.6666 32.0102Z" fill="white"/>
</g>
<defs>
<clipPath id="clip0_225_45924">
<rect width="32" height="32" fill="white" transform="translate(16 16)"/>
</clipPath>
</defs>
</svg>
