<svg width="64" height="64" viewBox="0 0 64 64" fill="none" xmlns="http://www.w3.org/2000/svg">
<rect width="64" height="64" rx="32" fill="#2BD9D3"/>
<path fill-rule="evenodd" clip-rule="evenodd" d="M17.7541 31.7355C25.3332 28.4121 30.3995 26.264 32.9529 25.2102C40.1672 22.211 41.6668 21.6841 42.6395 21.6436C42.8422 21.6436 43.3286 21.6841 43.6528 21.9273C43.896 22.1299 43.977 22.4136 44.0176 22.6163C44.0581 22.8189 44.0986 23.2648 44.0581 23.6295C43.6528 27.7231 41.9911 37.734 41.0994 42.3139C40.7346 44.2593 40.0051 44.9078 39.3161 44.9888C37.8165 45.1104 36.6411 43.9756 35.182 43.0434C32.9123 41.5438 31.6154 40.6116 29.3862 39.1525C26.8328 37.4503 28.4946 36.5181 29.9537 35.0185C30.3184 34.6132 37.0059 28.5742 37.1275 28.0068C37.1275 27.9257 37.168 27.6825 37.0059 27.5609C36.8438 27.4393 36.6411 27.4799 36.479 27.5204C36.2358 27.5609 32.5881 29.9927 25.4954 34.7753C24.4416 35.5048 23.5094 35.8291 22.6583 35.8291C21.7261 35.8291 19.9427 35.3022 18.6053 34.8563C16.9841 34.3294 15.6871 34.0457 15.8087 33.1541C15.8897 32.7082 16.5382 32.2219 17.7541 31.7355Z" fill="white"/>
</svg>
