<svg width="64" height="64" viewBox="0 0 64 64" fill="none" xmlns="http://www.w3.org/2000/svg">
<rect width="64" height="64" rx="32" fill="#2BD9D3"/>
<g clip-path="url(#clip0_225_45916)">
<path d="M28.5227 37.1848V26.8125L37.4091 31.9989L28.5227 37.1848ZM48.2895 23.5488C47.8985 22.0383 46.7463 20.8488 45.2836 20.4451C42.6321 19.7114 32 19.7114 32 19.7114C32 19.7114 21.3679 19.7114 18.7164 20.4451C17.2536 20.8488 16.1014 22.0383 15.7105 23.5488C15 26.2865 15 31.9987 15 31.9987C15 31.9987 15 37.7107 15.7105 40.4485C16.1014 41.959 17.2536 43.1485 18.7164 43.5524C21.3679 44.2859 32 44.2859 32 44.2859C32 44.2859 42.6321 44.2859 45.2836 43.5524C46.7463 43.1485 47.8985 41.959 48.2895 40.4485C49 37.7107 49 31.9987 49 31.9987C49 31.9987 49 26.2865 48.2895 23.5488Z" fill="white"/>
</g>
<defs>
<clipPath id="clip0_225_45916">
<rect width="34" height="24.5745" fill="white" transform="translate(15 19.7128)"/>
</clipPath>
</defs>
</svg>
