<svg width="591" height="467" viewBox="0 0 591 467" fill="none" xmlns="http://www.w3.org/2000/svg">
<path d="M369.233 5.8129L353.52 0.39585L355.479 17.6051L369.573 8.79363L369.233 5.8129ZM580.5 96.5003L581.951 96.123L580.5 96.5003ZM3.49973 341.5L4.98208 341.73L3.49973 341.5ZM82.829 455.032L94.6785 466.688L100.321 450.313L83.8063 452.196L82.829 455.032ZM85.3523 452.301C82.8701 451.248 80.1051 450.016 77.1352 448.597L75.8421 451.304C78.8555 452.744 81.6614 453.994 84.1813 455.063L85.3523 452.301ZM69.0746 444.523C66.5286 443.164 63.8993 441.688 61.2236 440.094L59.6878 442.671C62.4067 444.291 65.077 445.79 67.6615 447.17L69.0746 444.523ZM53.6043 435.292C51.1489 433.655 48.6845 431.92 46.2378 430.086L44.438 432.486C46.932 434.356 49.4419 436.123 51.9403 437.788L53.6043 435.292ZM39.2116 424.48C36.9469 422.554 34.7218 420.538 32.559 418.428L30.4644 420.576C32.6792 422.736 34.9551 424.799 37.2685 426.765L39.2116 424.48ZM26.377 411.93C24.4109 409.696 22.5254 407.373 20.7412 404.959L18.3286 406.742C20.1663 409.228 22.1058 411.618 24.1248 413.912L26.377 411.93ZM15.7666 397.532C14.2378 394.995 12.8253 392.37 11.5482 389.655L8.83363 390.933C10.1563 393.744 11.6177 396.459 13.1971 399.08L15.7666 397.532ZM8.1952 381.395C7.24347 378.621 6.43336 375.763 5.78196 372.819L2.85279 373.467C3.5291 376.524 4.37007 379.491 5.35761 382.369L8.1952 381.395ZM4.34982 364.004C4.04628 361.117 3.89329 358.153 3.90491 355.111L0.904933 355.1C0.892899 358.25 1.05133 361.322 1.36627 364.317L4.34982 364.004ZM4.39782 346.21C4.55402 344.734 4.7483 343.24 4.98208 341.73L2.01737 341.271C1.77631 342.829 1.57579 344.37 1.41448 345.894L4.39782 346.21ZM4.98208 341.73C5.22379 340.168 5.50411 338.639 5.82224 337.143L2.88781 336.519C2.5578 338.071 2.26745 339.655 2.01737 341.271L4.98208 341.73ZM8.17867 328.546C9.15262 325.684 10.2851 322.956 11.5696 320.356L8.87988 319.027C7.53636 321.747 6.35393 324.596 5.33865 327.579L8.17867 328.546ZM16.0325 312.695C17.6969 310.245 19.5217 307.925 21.5005 305.728L19.2716 303.72C17.2032 306.016 15.2937 308.444 13.5509 311.009L16.0325 312.695ZM27.9184 299.481C30.1231 297.592 32.4667 295.812 34.9437 294.135L33.2619 291.651C30.6961 293.388 28.2618 295.237 25.9666 297.203L27.9184 299.481ZM42.6825 289.457C45.2314 288.08 47.891 286.79 50.6568 285.58L49.4548 282.831C46.6181 284.072 43.8835 285.399 41.257 286.817L42.6825 289.457ZM59.1427 282.236C61.8788 281.266 64.7001 280.362 67.6031 279.521L66.7679 276.64C63.8125 277.496 60.9352 278.418 58.1404 279.409L59.1427 282.236ZM76.5282 277.187C79.3515 276.523 82.2402 275.91 85.1913 275.344L84.6267 272.398C81.6373 272.971 78.7078 273.593 75.8416 274.267L76.5282 277.187ZM94.2279 273.789C97.1459 273.34 100.117 272.932 103.138 272.562L102.774 269.584C99.724 269.958 96.7223 270.37 93.7719 270.823L94.2279 273.789ZM112.147 271.586C115.157 271.3 118.211 271.047 121.308 270.826L121.094 267.834C117.976 268.056 114.898 268.311 111.863 268.6L112.147 271.586ZM130.246 270.28C133.261 270.125 136.313 269.997 139.397 269.894L139.297 266.896C136.196 266.999 133.127 267.128 130.092 267.284L130.246 270.28ZM148.483 269.662C151.467 269.609 154.479 269.576 157.517 269.563L157.504 266.563C154.453 266.576 151.428 266.609 148.43 266.663L148.483 269.662ZM166.708 269.578C169.702 269.601 172.719 269.64 175.757 269.695L175.811 266.695C172.763 266.641 169.736 266.601 166.73 266.579L166.708 269.578ZM184.825 269.899C187.868 269.981 190.929 270.077 194.007 270.184L194.112 267.186C191.026 267.078 187.957 266.982 184.906 266.9L184.825 269.899ZM203.056 270.531C206.066 270.656 209.092 270.791 212.131 270.935L212.273 267.939C209.229 267.795 206.197 267.659 203.18 267.533L203.056 270.531ZM221.286 271.393C224.298 271.55 227.32 271.715 230.353 271.885L230.521 268.89C227.485 268.719 224.459 268.554 221.443 268.397L221.286 271.393ZM239.429 272.411C242.463 272.592 245.506 272.777 248.556 272.966L248.742 269.971C245.69 269.782 242.644 269.597 239.607 269.416L239.429 272.411ZM257.645 273.536C260.667 273.728 263.694 273.923 266.725 274.118L266.919 271.125C263.886 270.929 260.858 270.734 257.835 270.542L257.645 273.536ZM275.832 274.708C278.864 274.904 281.899 275.101 284.935 275.296L285.128 272.302C282.092 272.107 279.058 271.91 276.026 271.714L275.832 274.708ZM294.029 275.877C297.061 276.069 300.094 276.259 303.125 276.445L303.309 273.451C300.28 273.265 297.249 273.075 294.219 272.883L294.029 275.877ZM312.23 276.994C315.272 277.174 318.312 277.349 321.349 277.518L321.516 274.523C318.483 274.354 315.446 274.179 312.407 273.999L312.23 276.994ZM330.446 278.009C333.482 278.167 336.514 278.317 339.539 278.46L339.681 275.464C336.66 275.321 333.633 275.17 330.601 275.013L330.446 278.009ZM348.691 278.869C351.735 278.996 354.771 279.114 357.797 279.221L357.904 276.223C354.884 276.116 351.854 275.998 348.816 275.871L348.691 278.869ZM366.871 279.512C369.946 279.599 373.01 279.674 376.062 279.736L376.123 276.737C373.079 276.675 370.023 276.6 366.956 276.513L366.871 279.512ZM385.18 279.88C388.212 279.914 391.231 279.933 394.234 279.936L394.237 276.936C391.244 276.933 388.236 276.914 385.213 276.88L385.18 279.88ZM403.46 279.893C406.517 279.861 409.558 279.81 412.579 279.74L412.509 276.741C409.501 276.811 406.474 276.861 403.428 276.893L403.46 279.893ZM421.628 279.466C424.73 279.35 427.809 279.212 430.864 279.048L430.704 276.052C427.666 276.215 424.602 276.353 421.515 276.469L421.628 279.466ZM439.955 278.483C443.004 278.266 446.026 278.021 449.019 277.749L448.747 274.761C445.774 275.032 442.772 275.274 439.742 275.49L439.955 278.483ZM458.214 276.81C461.246 276.465 464.246 276.088 467.211 275.676L466.798 272.705C463.859 273.112 460.884 273.487 457.875 273.829L458.214 276.81ZM476.3 274.287C479.357 273.775 482.372 273.222 485.344 272.627L484.755 269.686C481.816 270.274 478.831 270.821 475.804 271.328L476.3 274.287ZM494.156 270.704C497.219 269.978 500.23 269.201 503.186 268.371L502.375 265.483C499.46 266.301 496.489 267.068 493.464 267.785L494.156 270.704ZM511.885 265.717C514.847 264.737 517.746 263.697 520.579 262.592L519.489 259.797C516.708 260.882 513.858 261.904 510.943 262.868L511.885 265.717ZM529.042 259.005C531.854 257.712 534.589 256.345 537.244 254.901L535.811 252.265C533.218 253.676 530.542 255.013 527.788 256.279L529.042 259.005ZM545.206 250.179C547.796 248.505 550.294 246.743 552.696 244.89L550.863 242.515C548.53 244.315 546.1 246.029 543.577 247.66L545.206 250.179ZM559.771 238.897C562.025 236.801 564.171 234.604 566.205 232.303L563.958 230.316C561.99 232.542 559.911 234.669 557.728 236.701L559.771 238.897ZM571.967 225.085C573.76 222.589 575.437 219.987 576.993 217.275L574.391 215.782C572.886 218.405 571.264 220.921 569.53 223.335L571.967 225.085ZM581.148 209.131C582.417 206.312 583.57 203.39 584.602 200.36L581.763 199.392C580.76 202.334 579.642 205.168 578.412 207.898L581.148 209.131ZM587.135 191.749C587.875 188.788 588.511 185.734 589.039 182.585L586.081 182.089C585.565 185.162 584.945 188.139 584.224 191.022L587.135 191.749ZM590.229 173.575C590.519 170.618 590.722 167.585 590.836 164.472L587.838 164.363C587.726 167.416 587.527 170.388 587.244 173.282L590.229 173.575ZM590.909 154.909C590.851 152.051 590.724 149.133 590.526 146.152L587.532 146.35C587.727 149.287 587.852 152.16 587.909 154.969L590.909 154.909ZM589.717 137.018C589.376 133.91 588.963 130.738 588.476 127.501L585.509 127.947C585.99 131.147 586.398 134.279 586.735 137.346L589.717 137.018ZM587.036 118.9C586.501 115.99 585.91 113.03 585.261 110.019L582.328 110.651C582.971 113.633 583.556 116.564 584.085 119.443L587.036 118.9ZM583.142 100.833C582.76 99.2759 582.363 97.706 581.951 96.123L579.048 96.8776C579.456 98.4477 579.849 100.005 580.228 101.548L583.142 100.833ZM581.951 96.123C581.57 94.655 581.161 93.2096 580.724 91.7865L577.856 92.6655C578.28 94.0471 578.677 95.451 579.048 96.8776L581.951 96.123ZM577.756 83.426C576.625 80.6432 575.385 77.9556 574.041 75.36L571.377 76.7392C572.678 79.2532 573.88 81.8574 574.976 84.5549L577.756 83.426ZM569.585 67.6563C567.967 65.139 566.245 62.7196 564.426 60.3946L562.063 62.2429C563.826 64.4963 565.494 66.8402 567.061 69.2781L569.585 67.6563ZM558.636 53.642C556.607 51.4778 554.488 49.407 552.287 47.4258L550.28 49.6554C552.42 51.5819 554.478 53.5936 556.448 55.694L558.636 53.642ZM545.458 41.7541C543.117 39.9587 540.703 38.2481 538.226 36.6184L536.577 39.1246C538.997 40.7163 541.351 42.3851 543.632 44.1347L545.458 41.7541ZM530.663 31.9976C528.104 30.5459 525.491 29.169 522.831 27.8633L521.509 30.5563C524.118 31.8369 526.678 33.186 529.183 34.607L530.663 31.9976ZM514.783 24.183C512.079 23.0325 509.338 21.9474 506.566 20.9244L505.528 23.7388C508.256 24.7458 510.952 25.8129 513.608 26.9434L514.783 24.183ZM498.218 18.054C495.419 17.1591 492.596 16.3216 489.758 15.5382L488.96 18.4301C491.761 19.2033 494.545 20.0294 497.304 20.9116L498.218 18.054ZM481.211 13.3489C478.346 12.6697 475.472 12.0415 472.596 11.4607L472.002 14.4014C474.847 14.9758 477.688 15.5969 480.519 16.268L481.211 13.3489ZM463.931 9.85112C461.023 9.35644 458.12 8.90708 455.229 8.49965L454.811 11.4703C457.674 11.8739 460.549 12.3189 463.428 12.8086L463.931 9.85112ZM446.503 7.38813C443.559 7.05206 440.636 6.75684 437.742 6.49877L437.476 9.48691C440.346 9.74288 443.244 10.0356 446.163 10.3688L446.503 7.38813ZM428.959 5.81919C425.983 5.62333 423.049 5.46448 420.166 5.33831L420.035 8.33544C422.897 8.46069 425.809 8.61836 428.762 8.81271L428.959 5.81919ZM411.368 5.04632C408.361 4.97782 405.425 4.94264 402.573 4.93523L402.566 7.93522C405.398 7.94258 408.313 7.97752 411.3 8.04554L411.368 5.04632ZM393.792 4.99884C390.727 5.05105 387.791 5.13232 385.001 5.23421L385.111 8.23221C387.882 8.131 390.799 8.05026 393.843 7.99841L393.792 4.99884ZM376.155 5.64519C372.952 5.82621 370.04 6.02639 367.46 6.22647L367.692 9.21748C370.252 9.01894 373.143 8.82018 376.324 8.64041L376.155 5.64519Z" fill="url(#paint0_radial_225_37677)"/>
<defs>
<radialGradient id="paint0_radial_225_37677" cx="0" cy="0" r="1" gradientUnits="userSpaceOnUse" gradientTransform="translate(479.999 243.001) rotate(-127.999) scale(284.255 323.711)">
<stop stop-color="#29E4DE" stop-opacity="0"/>
<stop offset="1" stop-color="#29E4DE"/>
</radialGradient>
</defs>
</svg>
