<svg width="87" height="64" viewBox="0 0 87 64" fill="none" xmlns="http://www.w3.org/2000/svg">
<g opacity="0.5">
<path d="M1.06836 29.2051L32.8944 9.23175L32.8508 9.25909M1.06836 29.2051L41.1818 62.7314L49.4127 57.5659L33.6955 44.4297L38.0505 41.6966L53.7676 54.8329L62.582 49.3011L46.8649 36.1649L57.2471 29.6492C60.8184 27.408 62.9582 24.1844 63.1959 20.6876C63.4336 17.1909 61.7496 13.7074 58.5145 11.0035C55.2793 8.2996 50.758 6.59677 45.9451 6.26963C41.1323 5.94249 36.4221 7.01783 32.8508 9.25909M1.06836 29.2051L32.8508 9.25909M27.233 38.9137L31.5879 36.1806L20.6049 27.0011L16.2499 29.7342M27.233 38.9137L16.2499 29.7342M27.233 38.9137L31.5531 36.2025M16.2499 29.7342L16.1715 29.7834M16.1715 29.7834L20.5701 27.023L31.5531 36.2025M16.1715 29.7834L27.1546 38.9629L31.5531 36.2025M49.9957 24.7432C47.0378 20.327 44.6703 18.3298 39.1292 15.6612C39.1292 15.6612 44.8175 13.0741 49.2766 16.801C53.7358 20.5279 49.9957 24.7432 49.9957 24.7432ZM39.364 30.0997L29.959 22.2391L43.4553 20.6968L39.364 30.0997Z" stroke="#29E4DE" stroke-width="0.668399" stroke-miterlimit="10"/>
</g>
</svg>
