<svg width="43" height="40" viewBox="0 0 43 40" fill="none" xmlns="http://www.w3.org/2000/svg">
<path fill-rule="evenodd" clip-rule="evenodd" d="M8.66773 7.29516L8.73687 7.29876L10.3885 17.7269L14.1987 17.9266L10.3194 17.7232L8.66773 7.29516Z" fill="#29E4DE"/>
<path fill-rule="evenodd" clip-rule="evenodd" d="M28.4058 1.85868L0.375 0.389648L6.40731 38.4762L13.6666 38.8566L11.303 23.9336L15.1439 24.1349L17.5075 39.0579L25.2814 39.4653L22.9178 24.5423L32.0745 25.0222C35.2242 25.1873 38.0517 24.1254 39.9348 22.0701C41.818 20.0148 42.6026 17.1345 42.1161 14.0628C41.6296 10.9912 39.9118 7.97973 37.3406 5.691C34.7695 3.40228 31.5555 2.02375 28.4058 1.85868ZM14.2294 17.9281L10.3885 17.7269L8.73687 7.29876L12.5778 7.50005L14.2294 17.9281ZM21.6879 17.5464L20.2736 8.61657L28.7133 13.5164L21.6879 17.5464ZM28.7727 8.53253C30.587 12.5823 30.9339 14.8415 30.4068 18.8499C30.4068 18.8499 34.6393 17.8697 33.9688 13.6359C33.2982 9.40204 28.7727 8.53253 28.7727 8.53253Z" fill="#29E4DE"/>
</svg>
