<svg width="28" height="28" viewBox="0 0 28 28" fill="none" xmlns="http://www.w3.org/2000/svg">
<path fill-rule="evenodd" clip-rule="evenodd" d="M5.08846 4.84626L5.13692 4.84625V12.3416L7.80769 12.3416H5.08846V4.84626Z" fill="white"/>
<path fill-rule="evenodd" clip-rule="evenodd" d="M19.6485 0.15625H0V27.5316H5.08846V16.8055H7.78077V27.5316H13.23V16.8055H19.6485C21.8563 16.8055 23.9737 15.9284 25.5349 14.3673C27.096 12.8061 27.9731 10.6887 27.9731 8.48087C27.9731 6.27304 27.096 4.15564 25.5349 2.59447C23.9737 1.03331 21.8563 0.15625 19.6485 0.15625ZM7.82923 12.3416H5.13692V4.84625H7.82923V12.3416ZM13.1438 11.7816V5.36316L18.5608 8.59393L13.1438 11.7816ZM19.1607 4.97942C19.9897 7.84569 19.982 9.46998 19.1607 12.3952C19.1607 12.3952 22.2621 11.524 22.2621 8.48087C22.2621 5.43773 19.1607 4.97942 19.1607 4.97942Z" fill="white"/>
<path fill-rule="evenodd" clip-rule="evenodd" d="M15.8171 23.1956H16.2315V21.9063H17.1717C17.1717 21.9063 18.0593 21.8621 18.0593 21.0334C18.0593 20.2046 17.1717 20.1836 17.1717 20.1836H15.8171V23.1956ZM16.2315 20.5285V21.5487H17.0771C17.0771 21.5487 17.6366 21.5361 17.6366 21.0334C17.6366 20.5306 17.0771 20.5264 17.0771 20.5264L16.2315 20.5285Z" fill="white"/>
<path d="M18.581 20.1836H18.9995V22.8338H20.5085V23.2004H18.5801L18.581 20.1836Z" fill="white"/>
<path fill-rule="evenodd" clip-rule="evenodd" d="M20.6675 23.2004H21.0987L21.4184 22.2975H22.6152L22.9076 23.2004H23.3808L22.2808 20.1857H21.8033L20.6675 23.2004ZM22.0242 20.6632L21.5425 21.942H22.4869L22.0242 20.6632Z" fill="white"/>
<path d="M23.2071 20.1857H23.6955L24.5405 21.5971L25.3911 20.1857H25.8904L24.76 21.9757V23.2004H24.3375V21.9757L23.2071 20.1857Z" fill="white"/>
<path fill-rule="evenodd" clip-rule="evenodd" d="M22.9739 24.4717C22.9739 24.4717 21.4641 24.4322 21.4641 26.1116C21.4641 27.791 22.9739 27.6715 22.9739 27.6715C22.9739 27.6715 24.4293 27.7515 24.4293 26.1116C24.4293 24.4717 22.9739 24.4717 22.9739 24.4717ZM21.917 26.1116C21.917 27.3849 22.9739 27.3094 22.9739 27.3094C22.9739 27.3094 23.9954 27.4424 23.9954 26.1116C23.9954 24.7808 22.9739 24.8491 22.9739 24.8491C22.9739 24.8491 21.917 24.8383 21.917 26.1116Z" fill="white"/>
<path fill-rule="evenodd" clip-rule="evenodd" d="M15.8201 27.5942H16.2345V26.3048H17.1747C17.1747 26.3048 18.0623 26.2607 18.0623 25.4319C18.0623 24.6032 17.1747 24.5822 17.1747 24.5822H15.8201V27.5942ZM16.2345 24.9271V25.9473H17.08C17.08 25.9473 17.6395 25.9346 17.6395 25.4319C17.6395 24.9292 17.08 24.925 17.08 24.925L16.2345 24.9271Z" fill="white"/>
<path fill-rule="evenodd" clip-rule="evenodd" d="M18.6289 27.5942H19.0504V26.3048H19.8556H20.0407C20.0407 26.3048 20.2052 26.2836 20.3415 26.3822C20.4778 26.4808 20.5097 26.6493 20.5097 26.6493L20.5862 27.5942H21.1095V27.528C21.1095 27.528 21.063 27.4962 21.0092 27.4424C20.9555 27.3886 20.953 27.1783 20.953 27.1783L20.9383 26.5817C20.9383 26.5817 20.8919 26.3274 20.8014 26.2296C20.7109 26.1318 20.5981 26.1116 20.5981 26.1116C20.8124 25.985 20.9956 25.7762 20.9956 25.4319C20.9956 24.6032 20.0996 24.5822 20.0996 24.5822H18.6289V27.5942ZM19.0758 24.9271V25.9473H19.9965C19.9965 25.9473 20.5636 25.9346 20.5636 25.4319C20.5636 24.9292 19.9734 24.9271 19.9734 24.9271H19.0758Z" fill="white"/>
<path d="M24.939 27.5942H25.3736V26.2279H26.8514V25.8491H25.3736V24.9426H27.0553V24.5822H24.939V27.5942Z" fill="white"/>
<path d="M27.5838 24.5822H27.9912V27.5942H27.5838V24.5822Z" fill="white"/>
</svg>
