<svg width="28" height="28" viewBox="0 0 28 28" fill="none" xmlns="http://www.w3.org/2000/svg">
<path fill-rule="evenodd" clip-rule="evenodd" d="M5.08846 4.84626L5.13692 4.84625V12.3416L7.80769 12.3416H5.08846V4.84626Z" fill="white"/>
<path fill-rule="evenodd" clip-rule="evenodd" d="M19.6485 0.15625H0V27.5316H5.08846V16.8055H7.78077V27.5316H13.23V16.8055H19.6485C21.8563 16.8055 23.9737 15.9284 25.5349 14.3673C27.096 12.8061 27.9731 10.6887 27.9731 8.48087C27.9731 6.27304 27.096 4.15564 25.5349 2.59447C23.9737 1.03331 21.8563 0.15625 19.6485 0.15625ZM7.82923 12.3416H5.13692V4.84625H7.82923V12.3416ZM13.1438 11.7816V5.36316L18.5608 8.59393L13.1438 11.7816ZM19.1607 4.97942C19.9897 7.84569 19.982 9.46998 19.1607 12.3952C19.1607 12.3952 22.2621 11.524 22.2621 8.48087C22.2621 5.43773 19.1607 4.97942 19.1607 4.97942Z" fill="white"/>
</svg>
